<svg xmlns="http://www.w3.org/2000/svg" xmlns:xlink="http://www.w3.org/1999/xlink" width="250" zoomAndPan="magnify" viewBox="0 0 187.5 187.499992" height="250" preserveAspectRatio="xMidYMid meet" version="1.0"><defs><clipPath id="2cae736911"><path d="M 38 117 L 149.601562 117 L 149.601562 126.109375 L 38 126.109375 Z M 38 117 " clip-rule="nonzero"/></clipPath><clipPath id="3b739df7d4"><path d="M 37.398438 61.03125 L 149.601562 61.03125 L 149.601562 124 L 37.398438 124 Z M 37.398438 61.03125 " clip-rule="nonzero"/></clipPath><clipPath id="7868f31317"><path d="M 38 65 L 149 65 L 149 115 L 38 115 Z M 38 65 " clip-rule="nonzero"/></clipPath><clipPath id="1c6426bae2"><path d="M 77.09375 68.175781 C 67.882812 68.519531 56.789062 69.386719 43.8125 70.777344 C 44.28125 69.175781 44.96875 68.3125 45.878906 68.1875 C 59.0625 66.308594 69.441406 65.292969 77.023438 65.144531 C 79.273438 65.101562 81.648438 65.265625 83.890625 65.550781 C 87.648438 66.035156 91.8125 66.710938 96.386719 67.582031 C 97.515625 67.777344 98.300781 68.621094 98.746094 70.113281 C 99.894531 76.609375 100.613281 85.027344 100.898438 95.363281 L 93.511719 95.199219 L 93.484375 93.449219 C 93.480469 93.085938 93.375 92.679688 93.171875 92.234375 C 93.101562 90.148438 92.925781 87.050781 92.65625 83.792969 C 92.667969 88.347656 92.75 92.164062 92.75 92.164062 C 92.945312 92.757812 93.035156 93.15625 93.027344 93.367188 L 93.015625 95.1875 L 91.117188 95.144531 C 89.074219 95.300781 87.105469 97.9375 85.21875 103.050781 C 81.5 103.007812 79.640625 102.984375 79.640625 102.984375 C 80.167969 103.460938 80.429688 103.699219 80.429688 103.699219 C 80.351562 108.511719 80.304688 111.265625 80.292969 111.964844 C 80.28125 112.644531 80.625 113.011719 81.289062 113.03125 L 84.816406 113.128906 C 84.816406 113.128906 83.660156 112.78125 81.972656 112.195312 C 81.972656 112.195312 83.050781 110.746094 85.203125 107.84375 C 85.203125 107.84375 83.8125 107.816406 81.027344 107.753906 C 81.027344 107.753906 81.03125 107.515625 81.035156 107.03125 C 81.035156 107.03125 82.472656 107.054688 85.34375 107.105469 C 85.34375 107.105469 84.597656 106.816406 83.097656 106.238281 C 83.097656 106.238281 83.929688 105.320312 85.59375 103.484375 C 87.453125 98.460938 89.355469 95.851562 91.296875 95.648438 L 100.914062 95.863281 C 100.929688 96.5 100.945312 97.148438 100.960938 97.800781 C 97.625 97.738281 95.960938 97.710938 95.960938 97.710938 C 95.277344 99.261719 94.9375 100.035156 94.9375 100.035156 C 93.066406 100.039062 92.128906 100.042969 92.128906 100.042969 C 88.992188 100.707031 87.242188 103.914062 86.878906 109.664062 C 86.808594 112.386719 86.773438 113.75 86.773438 113.75 C 86.746094 114.269531 86.535156 114.519531 86.140625 114.503906 C 82.394531 114.40625 80.523438 114.359375 80.523438 114.359375 C 59.976562 114.25 47.214844 114.183594 42.238281 114.164062 C 40.539062 114.105469 39.5 113.71875 39.363281 113.277344 C 39.199219 112.484375 38.925781 108.441406 39.109375 104.882812 C 39.132812 104.09375 39.632812 103.429688 40.113281 103.234375 C 40.136719 102.347656 40.148438 101.902344 40.148438 101.902344 C 41.363281 101.949219 41.972656 101.96875 41.972656 101.96875 C 41.988281 102.015625 42.003906 102.0625 42.015625 102.109375 C 42.136719 102.503906 42.222656 102.796875 42.28125 102.972656 C 42.394531 103.347656 42.550781 103.726562 43.003906 103.769531 C 48.292969 104.171875 51.542969 104.460938 52.792969 104.578125 C 54.757812 104.761719 56.339844 104.773438 58.296875 104.570312 C 65.355469 103.832031 69.664062 103.335938 70.800781 103.203125 C 71.976562 103.066406 72.273438 102.640625 72.40625 101.460938 C 76.171875 101.046875 78.328125 100.828125 78.328125 100.828125 C 78.34375 101.703125 78.328125 102.199219 78.328125 102.199219 C 78.660156 102.628906 79.164062 103.417969 79.164062 103.417969 C 79.246094 101.285156 78.96875 87.3125 78.957031 86.730469 C 78.84375 87.757812 78.429688 99.769531 78.429688 99.769531 C 73.863281 100.21875 71.582031 100.445312 71.582031 100.445312 C 71.398438 101.238281 70.976562 101.714844 70.3125 101.875 C 62.28125 103.265625 53.527344 103.542969 44.046875 102.703125 C 43.28125 102.601562 42.90625 102.40625 42.503906 101.3125 C 40.945312 101.265625 40.167969 101.242188 40.167969 101.242188 C 39.382812 100.488281 38.964844 99.753906 38.917969 99.03125 C 38.769531 96.984375 38.761719 94.210938 38.851562 92.027344 C 38.9375 91.015625 38.898438 90.605469 39.859375 90.140625 C 39.957031 89.042969 40.003906 88.492188 40.003906 88.492188 C 40.066406 88.296875 40.21875 88.195312 40.464844 88.1875 C 62.644531 87.320312 75.136719 86.582031 77.945312 85.972656 C 78.417969 75.496094 78.65625 70.257812 78.65625 70.257812 C 78.648438 68.933594 78.128906 68.238281 77.09375 68.171875 Z M 104.507812 99.476562 C 103.585938 92.976562 102.199219 82.71875 100.375 69.324219 C 100.253906 68.851562 99.746094 68.664062 98.851562 68.765625 C 99.316406 68.492188 99.703125 68.363281 100.015625 68.371094 C 102.09375 68.863281 103.132812 69.109375 103.132812 69.109375 C 103.59375 69.238281 103.875 69.546875 103.976562 70.035156 C 108.632812 87.460938 110.960938 96.171875 110.960938 96.171875 C 135.820312 98.277344 148.246094 99.332031 148.246094 99.332031 C 148.234375 99.820312 148.230469 100 148.234375 99.875 L 144.222656 101.699219 L 104.503906 99.476562 Z M 105.898438 89.484375 C 106.824219 89.507812 107.285156 89.519531 107.285156 89.519531 C 107.285156 89.519531 107.101562 88.660156 106.734375 86.941406 C 106.734375 86.941406 106.355469 86.933594 105.601562 86.914062 C 105.386719 86.972656 105.304688 87.125 105.359375 87.371094 C 105.546875 88.558594 105.640625 89.152344 105.640625 89.152344 C 105.683594 89.332031 105.769531 89.445312 105.898438 89.484375 Z M 128.730469 106.125 C 129.027344 104.320312 129.472656 103.019531 130.0625 102.226562 L 126.667969 102.082031 L 126.585938 104.941406 C 126.566406 105.117188 126.457031 105.226562 126.269531 105.269531 C 126.269531 105.269531 126.046875 105.257812 125.597656 105.234375 C 125.421875 105.238281 125.296875 105.132812 125.222656 104.914062 L 125.28125 102.023438 L 96.578125 100.820312 C 97.65625 101.855469 98.324219 103.25 98.589844 105 C 101.585938 105.101562 103.085938 105.152344 103.085938 105.152344 C 103.433594 105.273438 103.605469 105.550781 103.605469 105.976562 C 103.492188 110.371094 103.433594 112.566406 103.433594 112.566406 C 103.921875 113.632812 104.164062 114.167969 104.164062 114.167969 C 120.113281 113.472656 128.089844 113.128906 128.089844 113.128906 C 128.078125 108.445312 128.074219 106.105469 128.074219 106.105469 C 128.511719 106.117188 128.730469 106.125 128.730469 106.125 Z M 111.277344 107.324219 C 111.65625 107.332031 111.960938 107.652344 111.949219 108.035156 L 111.882812 110.730469 L 110.492188 110.8125 L 110.566406 108 C 110.578125 107.617188 110.894531 107.3125 111.277344 107.324219 Z M 92.316406 91.222656 C 92.28125 91.371094 92.210938 91.449219 92.097656 91.457031 C 92.097656 91.457031 91.851562 91.441406 91.351562 91.414062 C 91.289062 91.730469 91.144531 91.945312 90.265625 91.855469 C 89.617188 91.78125 89.5625 91.679688 89.488281 91.332031 C 89.164062 91.242188 88.980469 91.234375 89.003906 90.816406 C 88.996094 90.511719 89.136719 90.367188 89.417969 90.386719 C 91.175781 90.480469 92.054688 90.53125 92.054688 90.53125 C 92.207031 90.539062 92.296875 90.652344 92.324219 90.875 C 92.320312 91.105469 92.316406 91.222656 92.316406 91.222656 Z M 65.71875 111.816406 C 60.203125 111.808594 53.675781 111.78125 46.132812 111.734375 C 45.742188 111.664062 45.5625 111.449219 45.59375 111.082031 C 46.230469 109.183594 46.550781 108.234375 46.550781 108.234375 C 46.785156 107.71875 47.191406 107.453125 47.765625 107.4375 C 49.882812 107.441406 50.941406 107.441406 50.941406 107.441406 C 50.960938 106.644531 50.96875 106.246094 50.96875 106.246094 C 57.203125 106.316406 60.320312 106.351562 60.320312 106.351562 C 60.3125 107.125 60.308594 107.507812 60.308594 107.507812 C 62.757812 107.570312 63.980469 107.605469 63.980469 107.605469 C 64.601562 107.613281 65.003906 107.792969 65.199219 108.136719 C 65.824219 109.824219 66.136719 110.667969 66.136719 110.667969 C 66.363281 111.234375 66.226562 111.617188 65.71875 111.816406 Z M 44.292969 109.285156 C 44.609375 108.390625 44.824219 107.476562 44.941406 106.542969 C 44.949219 105.96875 44.695312 105.628906 44.175781 105.519531 C 44.175781 105.519531 42.933594 105.457031 40.449219 105.328125 C 39.886719 105.355469 39.609375 105.625 39.621094 106.136719 C 39.609375 108.027344 39.605469 108.972656 39.605469 108.972656 C 39.617188 109.449219 39.769531 109.730469 40.0625 109.8125 C 42.207031 109.871094 43.277344 109.894531 43.277344 109.894531 C 43.789062 109.90625 44.125 109.703125 44.292969 109.285156 Z M 77.3125 106.171875 C 77.304688 107.507812 77.300781 108.179688 77.300781 108.179688 C 77.28125 109.035156 76.699219 109.492188 75.550781 109.542969 C 73.527344 109.546875 71.359375 109.511719 69.050781 109.429688 C 68.574219 109.390625 68.21875 109.140625 67.972656 108.671875 C 67.972656 108.671875 67.769531 107.898438 67.359375 106.351562 C 67.265625 105.824219 67.542969 105.445312 68.097656 105.347656 C 70.601562 105.148438 73.234375 104.980469 76 104.835938 C 76.859375 104.851562 77.300781 105.300781 77.3125 106.171875 Z M 55.761719 93.84375 C 56.980469 93.878906 57.9375 95.199219 57.898438 96.800781 C 57.859375 98.398438 56.832031 99.667969 55.613281 99.640625 C 54.390625 99.605469 53.433594 98.285156 53.472656 96.683594 C 53.515625 95.085938 54.539062 93.8125 55.761719 93.84375 Z M 72.199219 93.804688 C 72.050781 94.269531 71.875 94.601562 71.410156 94.613281 C 70.386719 94.632812 66.105469 94.734375 58.257812 94.910156 C 57.664062 93.800781 56.878906 93.203125 55.910156 93.117188 C 54.75 93.097656 53.847656 93.878906 53.136719 95.191406 C 53.136719 95.191406 49.511719 95.324219 42.515625 95.542969 C 42.257812 95.539062 42.105469 95.265625 42.054688 94.722656 C 49.527344 94.476562 53.214844 94.359375 53.214844 94.359375 C 54.488281 92.261719 56.859375 92.179688 58.289062 94.128906 C 67.5625 93.910156 72.199219 93.800781 72.199219 93.800781 Z M 71.152344 99.292969 C 70.953125 99.886719 70.625 100.128906 70.035156 100.1875 C 61 101.082031 52.371094 101.296875 44.148438 100.824219 C 43.625 100.765625 43.164062 100.535156 42.964844 100.039062 C 52.617188 100.578125 61.785156 100.316406 71.152344 99.292969 Z M 52.691406 98.253906 C 53.046875 99.058594 53.589844 99.578125 54.324219 99.820312 C 53.625 99.410156 53.128906 98.65625 52.839844 97.566406 C 52.839844 97.566406 49.335938 97.578125 42.335938 97.601562 C 42.476562 97.945312 42.738281 98.160156 43.125 98.238281 C 49.5 98.25 52.6875 98.253906 52.6875 98.253906 Z M 71.683594 96.605469 C 71.5625 97.035156 71.285156 97.285156 70.859375 97.355469 C 70.859375 97.355469 66.8125 97.539062 58.722656 97.910156 C 58.410156 98.742188 57.917969 99.367188 57.25 99.78125 C 57.855469 99.175781 58.273438 98.304688 58.511719 97.171875 C 67.292969 96.792969 71.6875 96.605469 71.6875 96.605469 Z M 80.089844 71.375 C 79.863281 75.074219 79.796875 78.902344 79.890625 82.863281 C 79.316406 82.816406 79.03125 82.960938 79.03125 83.304688 C 79.03125 83.304688 79.011719 83.902344 78.96875 85.097656 C 78.898438 85.429688 79.355469 85.5625 80.34375 85.5 C 82.988281 85.085938 85.945312 84.429688 89.207031 83.53125 C 89.816406 83.472656 90.179688 82.894531 90.289062 81.78125 C 90.285156 78.644531 90.199219 75.605469 90.023438 72.675781 C 90.035156 72.015625 89.75 71.511719 89.164062 71.167969 L 89.207031 69.683594 C 89.125 68.90625 88.691406 68.640625 88 68.589844 C 86.933594 68.511719 85.847656 68.585938 85.320312 68.785156 C 85.171875 68.5 84.878906 68.246094 84.488281 68.222656 C 84.488281 68.222656 83.320312 68.21875 80.988281 68.207031 C 80.0625 68.425781 79.558594 69.1875 79.488281 70.484375 C 79.4375 70.78125 79.503906 70.949219 79.683594 70.988281 L 80.144531 71 C 80.113281 71.113281 80.097656 71.242188 80.089844 71.375 Z M 97.742188 82.515625 C 97.671875 79.148438 97.433594 76.234375 97.023438 73.578125 C 96.867188 72.800781 96.449219 72.339844 95.769531 72.199219 C 95.769531 72.199219 94.890625 72.078125 93.125 71.839844 C 92.382812 71.710938 92.058594 72.082031 92.15625 72.953125 C 92.464844 78.375 92.644531 81.445312 92.683594 82.164062 C 92.71875 82.832031 92.9375 83.386719 93.664062 83.445312 C 95.285156 83.511719 96.347656 83.566406 96.796875 83.585938 C 97.417969 83.613281 97.773438 83.160156 97.742188 82.515625 Z M 84.203125 70.367188 L 82.222656 70.148438 L 82.222656 68.859375 C 83.609375 68.886719 84.300781 68.902344 84.300781 68.902344 C 84.574219 68.992188 84.703125 69.050781 84.75 69.296875 C 84.292969 69.527344 84.238281 69.886719 84.203125 70.367188 Z M 84.203125 70.367188 " clip-rule="evenodd"/></clipPath><linearGradient x1="35805.030305" gradientTransform="matrix(0.001694, 0, 0, 0.00169766, 28.985416, 28.889039)" y1="68533.277035" x2="65880.638859" gradientUnits="userSpaceOnUse" y2="18606.364237" id="683052dd78"><stop stop-opacity="1" stop-color="rgb(96.099854%, 67.498779%, 0%)" offset="0"/><stop stop-opacity="1" stop-color="rgb(96.099854%, 67.498779%, 0%)" offset="0.427825"/><stop stop-opacity="1" stop-color="rgb(96.099854%, 67.498779%, 0%)" offset="0.5"/><stop stop-opacity="1" stop-color="rgb(96.099854%, 67.498779%, 0%)" offset="0.53125"/><stop stop-opacity="1" stop-color="rgb(96.099854%, 67.498779%, 0%)" offset="0.546875"/><stop stop-opacity="1" stop-color="rgb(96.104431%, 67.5354%, 0.0167847%)" offset="0.554688"/><stop stop-opacity="1" stop-color="rgb(96.133423%, 67.747498%, 0.114441%)" offset="0.5625"/><stop stop-opacity="1" stop-color="rgb(96.183777%, 68.095398%, 0.279236%)" offset="0.570312"/><stop stop-opacity="1" stop-color="rgb(96.232605%, 68.444824%, 0.442505%)" offset="0.572175"/><stop stop-opacity="1" stop-color="rgb(96.257019%, 68.6203%, 0.524902%)" offset="0.578125"/><stop stop-opacity="1" stop-color="rgb(96.281433%, 68.79425%, 0.605774%)" offset="0.585938"/><stop stop-opacity="1" stop-color="rgb(96.330261%, 69.142151%, 0.769043%)" offset="0.59375"/><stop stop-opacity="1" stop-color="rgb(96.379089%, 69.491577%, 0.932312%)" offset="0.601562"/><stop stop-opacity="1" stop-color="rgb(96.427917%, 69.841003%, 1.095581%)" offset="0.609375"/><stop stop-opacity="1" stop-color="rgb(96.476746%, 70.188904%, 1.260376%)" offset="0.617187"/><stop stop-opacity="1" stop-color="rgb(96.5271%, 70.53833%, 1.423645%)" offset="0.625"/><stop stop-opacity="1" stop-color="rgb(96.575928%, 70.887756%, 1.586914%)" offset="0.632812"/><stop stop-opacity="1" stop-color="rgb(96.624756%, 71.235657%, 1.750183%)" offset="0.640625"/><stop stop-opacity="1" stop-color="rgb(96.673584%, 71.585083%, 1.913452%)" offset="0.648437"/><stop stop-opacity="1" stop-color="rgb(96.722412%, 71.934509%, 2.078247%)" offset="0.65625"/><stop stop-opacity="1" stop-color="rgb(96.77124%, 72.28241%, 2.241516%)" offset="0.664062"/><stop stop-opacity="1" stop-color="rgb(96.821594%, 72.631836%, 2.404785%)" offset="0.671875"/><stop stop-opacity="1" stop-color="rgb(96.870422%, 72.981262%, 2.568054%)" offset="0.679688"/><stop stop-opacity="1" stop-color="rgb(96.91925%, 73.329163%, 2.731323%)" offset="0.6875"/><stop stop-opacity="1" stop-color="rgb(96.968079%, 73.678589%, 2.896118%)" offset="0.695312"/><stop stop-opacity="1" stop-color="rgb(97.016907%, 74.028015%, 3.059387%)" offset="0.703125"/><stop stop-opacity="1" stop-color="rgb(97.065735%, 74.375916%, 3.222656%)" offset="0.710938"/><stop stop-opacity="1" stop-color="rgb(97.116089%, 74.725342%, 3.385925%)" offset="0.71875"/><stop stop-opacity="1" stop-color="rgb(97.164917%, 75.074768%, 3.549194%)" offset="0.726562"/><stop stop-opacity="1" stop-color="rgb(97.213745%, 75.422668%, 3.712463%)" offset="0.734375"/><stop stop-opacity="1" stop-color="rgb(97.262573%, 75.772095%, 3.877258%)" offset="0.742188"/><stop stop-opacity="1" stop-color="rgb(97.311401%, 76.121521%, 4.040527%)" offset="0.75"/><stop stop-opacity="1" stop-color="rgb(97.360229%, 76.469421%, 4.203796%)" offset="0.757812"/><stop stop-opacity="1" stop-color="rgb(97.409058%, 76.818848%, 4.367065%)" offset="0.765625"/><stop stop-opacity="1" stop-color="rgb(97.459412%, 77.168274%, 4.530334%)" offset="0.773437"/><stop stop-opacity="1" stop-color="rgb(97.50824%, 77.516174%, 4.695129%)" offset="0.78125"/><stop stop-opacity="1" stop-color="rgb(97.557068%, 77.865601%, 4.858398%)" offset="0.789062"/><stop stop-opacity="1" stop-color="rgb(97.605896%, 78.215027%, 5.021667%)" offset="0.796875"/><stop stop-opacity="1" stop-color="rgb(97.654724%, 78.562927%, 5.184937%)" offset="0.804688"/><stop stop-opacity="1" stop-color="rgb(97.703552%, 78.912354%, 5.348206%)" offset="0.8125"/><stop stop-opacity="1" stop-color="rgb(97.753906%, 79.260254%, 5.511475%)" offset="0.820312"/><stop stop-opacity="1" stop-color="rgb(97.802734%, 79.60968%, 5.67627%)" offset="0.828125"/><stop stop-opacity="1" stop-color="rgb(97.851562%, 79.959106%, 5.839539%)" offset="0.835937"/><stop stop-opacity="1" stop-color="rgb(97.900391%, 80.307007%, 6.002808%)" offset="0.84375"/><stop stop-opacity="1" stop-color="rgb(97.949219%, 80.656433%, 6.166077%)" offset="0.851562"/><stop stop-opacity="1" stop-color="rgb(97.998047%, 81.005859%, 6.329346%)" offset="0.859375"/><stop stop-opacity="1" stop-color="rgb(98.046875%, 81.35376%, 6.494141%)" offset="0.867187"/><stop stop-opacity="1" stop-color="rgb(98.097229%, 81.703186%, 6.65741%)" offset="0.875"/><stop stop-opacity="1" stop-color="rgb(98.146057%, 82.052612%, 6.820679%)" offset="0.882812"/><stop stop-opacity="1" stop-color="rgb(98.194885%, 82.400513%, 6.983948%)" offset="0.890625"/><stop stop-opacity="1" stop-color="rgb(98.243713%, 82.749939%, 7.147217%)" offset="0.898437"/><stop stop-opacity="1" stop-color="rgb(98.292542%, 83.099365%, 7.310486%)" offset="0.90625"/><stop stop-opacity="1" stop-color="rgb(98.34137%, 83.447266%, 7.475281%)" offset="0.914062"/><stop stop-opacity="1" stop-color="rgb(98.391724%, 83.796692%, 7.63855%)" offset="0.921875"/><stop stop-opacity="1" stop-color="rgb(98.440552%, 84.146118%, 7.801819%)" offset="0.929688"/><stop stop-opacity="1" stop-color="rgb(98.48938%, 84.494019%, 7.965088%)" offset="0.9375"/><stop stop-opacity="1" stop-color="rgb(98.538208%, 84.843445%, 8.128357%)" offset="0.945312"/><stop stop-opacity="1" stop-color="rgb(98.587036%, 85.192871%, 8.293152%)" offset="0.953125"/><stop stop-opacity="1" stop-color="rgb(98.635864%, 85.540771%, 8.456421%)" offset="0.960937"/><stop stop-opacity="1" stop-color="rgb(98.684692%, 85.890198%, 8.61969%)" offset="0.96875"/><stop stop-opacity="1" stop-color="rgb(98.735046%, 86.239624%, 8.782959%)" offset="0.976562"/><stop stop-opacity="1" stop-color="rgb(98.779297%, 86.555481%, 8.932495%)" offset="0.984375"/><stop stop-opacity="1" stop-color="rgb(98.799133%, 86.698914%, 8.999634%)" offset="1"/></linearGradient><clipPath id="7620cfc13e"><path d="M 85 97 L 97 97 L 97 115 L 85 115 Z M 85 97 " clip-rule="nonzero"/></clipPath><clipPath id="b0aecc2234"><path d="M 96.160156 97.714844 L 95.953125 97.710938 C 95.273438 99.261719 94.933594 100.039062 94.933594 100.039062 C 93.058594 100.042969 92.125 100.042969 92.125 100.042969 C 88.984375 100.710938 87.234375 103.917969 86.875 109.664062 C 86.804688 112.386719 86.769531 113.75 86.769531 113.75 C 86.742188 114.269531 86.53125 114.523438 86.132812 114.503906 L 85.773438 114.496094 C 86.078125 114.285156 86.085938 113.929688 86.164062 112.964844 C 86.257812 111.847656 86.296875 110.304688 86.328125 109.234375 C 86.421875 105.644531 87.878906 97.484375 92.691406 97.617188 L 96.164062 97.714844 Z M 96.160156 97.714844 " clip-rule="evenodd"/></clipPath><linearGradient x1="39995.377435" gradientTransform="matrix(0.001694, 0, 0, 0.00169766, 28.985416, 28.889039)" y1="40540.320874" x2="35700.893661" gradientUnits="userSpaceOnUse" y2="51310.413413" id="04a0fb8bb6"><stop stop-opacity="1" stop-color="rgb(78.799438%, 54.098511%, 0.799561%)" offset="0"/><stop stop-opacity="1" stop-color="rgb(78.799438%, 54.098511%, 0.799561%)" offset="0.0625"/><stop stop-opacity="1" stop-color="rgb(78.898621%, 54.176331%, 0.794983%)" offset="0.078125"/><stop stop-opacity="1" stop-color="rgb(79.11377%, 54.342651%, 0.784302%)" offset="0.09375"/><stop stop-opacity="1" stop-color="rgb(79.342651%, 54.519653%, 0.773621%)" offset="0.109375"/><stop stop-opacity="1" stop-color="rgb(79.571533%, 54.696655%, 0.762939%)" offset="0.125"/><stop stop-opacity="1" stop-color="rgb(79.800415%, 54.875183%, 0.752258%)" offset="0.140625"/><stop stop-opacity="1" stop-color="rgb(80.029297%, 55.052185%, 0.741577%)" offset="0.15625"/><stop stop-opacity="1" stop-color="rgb(80.258179%, 55.229187%, 0.730896%)" offset="0.171875"/><stop stop-opacity="1" stop-color="rgb(80.487061%, 55.406189%, 0.720215%)" offset="0.1875"/><stop stop-opacity="1" stop-color="rgb(80.715942%, 55.584717%, 0.709534%)" offset="0.195913"/><stop stop-opacity="1" stop-color="rgb(80.830383%, 55.673218%, 0.704956%)" offset="0.203125"/><stop stop-opacity="1" stop-color="rgb(80.944824%, 55.761719%, 0.698853%)" offset="0.21875"/><stop stop-opacity="1" stop-color="rgb(81.173706%, 55.938721%, 0.688171%)" offset="0.234375"/><stop stop-opacity="1" stop-color="rgb(81.402588%, 56.115723%, 0.67749%)" offset="0.25"/><stop stop-opacity="1" stop-color="rgb(81.63147%, 56.292725%, 0.666809%)" offset="0.265625"/><stop stop-opacity="1" stop-color="rgb(81.860352%, 56.471252%, 0.657654%)" offset="0.28125"/><stop stop-opacity="1" stop-color="rgb(82.090759%, 56.648254%, 0.646973%)" offset="0.296875"/><stop stop-opacity="1" stop-color="rgb(82.319641%, 56.825256%, 0.636292%)" offset="0.3125"/><stop stop-opacity="1" stop-color="rgb(82.548523%, 57.002258%, 0.62561%)" offset="0.328125"/><stop stop-opacity="1" stop-color="rgb(82.777405%, 57.180786%, 0.614929%)" offset="0.34375"/><stop stop-opacity="1" stop-color="rgb(83.006287%, 57.357788%, 0.604248%)" offset="0.359375"/><stop stop-opacity="1" stop-color="rgb(83.235168%, 57.53479%, 0.593567%)" offset="0.375"/><stop stop-opacity="1" stop-color="rgb(83.46405%, 57.711792%, 0.582886%)" offset="0.390625"/><stop stop-opacity="1" stop-color="rgb(83.692932%, 57.888794%, 0.572205%)" offset="0.40625"/><stop stop-opacity="1" stop-color="rgb(83.921814%, 58.067322%, 0.561523%)" offset="0.421875"/><stop stop-opacity="1" stop-color="rgb(84.150696%, 58.244324%, 0.550842%)" offset="0.4375"/><stop stop-opacity="1" stop-color="rgb(84.379578%, 58.421326%, 0.540161%)" offset="0.453125"/><stop stop-opacity="1" stop-color="rgb(84.608459%, 58.598328%, 0.52948%)" offset="0.46875"/><stop stop-opacity="1" stop-color="rgb(84.837341%, 58.77533%, 0.518799%)" offset="0.484375"/><stop stop-opacity="1" stop-color="rgb(85.066223%, 58.953857%, 0.508118%)" offset="0.5"/><stop stop-opacity="1" stop-color="rgb(85.295105%, 59.130859%, 0.497437%)" offset="0.515625"/><stop stop-opacity="1" stop-color="rgb(85.523987%, 59.307861%, 0.488281%)" offset="0.53125"/><stop stop-opacity="1" stop-color="rgb(85.752869%, 59.484863%, 0.4776%)" offset="0.546875"/><stop stop-opacity="1" stop-color="rgb(85.98175%, 59.663391%, 0.466919%)" offset="0.5625"/><stop stop-opacity="1" stop-color="rgb(86.210632%, 59.840393%, 0.456238%)" offset="0.578125"/><stop stop-opacity="1" stop-color="rgb(86.439514%, 60.017395%, 0.445557%)" offset="0.59375"/><stop stop-opacity="1" stop-color="rgb(86.668396%, 60.194397%, 0.434875%)" offset="0.609375"/><stop stop-opacity="1" stop-color="rgb(86.897278%, 60.371399%, 0.424194%)" offset="0.625"/><stop stop-opacity="1" stop-color="rgb(87.12616%, 60.549927%, 0.413513%)" offset="0.640625"/><stop stop-opacity="1" stop-color="rgb(87.356567%, 60.726929%, 0.402832%)" offset="0.65625"/><stop stop-opacity="1" stop-color="rgb(87.585449%, 60.903931%, 0.392151%)" offset="0.671875"/><stop stop-opacity="1" stop-color="rgb(87.814331%, 61.080933%, 0.38147%)" offset="0.6875"/><stop stop-opacity="1" stop-color="rgb(88.043213%, 61.25946%, 0.370789%)" offset="0.703125"/><stop stop-opacity="1" stop-color="rgb(88.272095%, 61.436462%, 0.360107%)" offset="0.71875"/><stop stop-opacity="1" stop-color="rgb(88.500977%, 61.613464%, 0.349426%)" offset="0.734375"/><stop stop-opacity="1" stop-color="rgb(88.729858%, 61.790466%, 0.338745%)" offset="0.75"/><stop stop-opacity="1" stop-color="rgb(88.95874%, 61.967468%, 0.328064%)" offset="0.765625"/><stop stop-opacity="1" stop-color="rgb(89.187622%, 62.145996%, 0.317383%)" offset="0.78125"/><stop stop-opacity="1" stop-color="rgb(89.416504%, 62.322998%, 0.308228%)" offset="0.796875"/><stop stop-opacity="1" stop-color="rgb(89.645386%, 62.5%, 0.297546%)" offset="0.804087"/><stop stop-opacity="1" stop-color="rgb(89.759827%, 62.588501%, 0.292969%)" offset="0.8125"/><stop stop-opacity="1" stop-color="rgb(89.874268%, 62.677002%, 0.286865%)" offset="0.828125"/><stop stop-opacity="1" stop-color="rgb(90.103149%, 62.854004%, 0.276184%)" offset="0.84375"/><stop stop-opacity="1" stop-color="rgb(90.332031%, 63.032532%, 0.265503%)" offset="0.859375"/><stop stop-opacity="1" stop-color="rgb(90.560913%, 63.209534%, 0.254822%)" offset="0.875"/><stop stop-opacity="1" stop-color="rgb(90.789795%, 63.386536%, 0.244141%)" offset="0.890625"/><stop stop-opacity="1" stop-color="rgb(91.018677%, 63.563538%, 0.233459%)" offset="0.90625"/><stop stop-opacity="1" stop-color="rgb(91.247559%, 63.742065%, 0.222778%)" offset="0.921875"/><stop stop-opacity="1" stop-color="rgb(91.47644%, 63.919067%, 0.212097%)" offset="0.9375"/><stop stop-opacity="1" stop-color="rgb(91.705322%, 64.096069%, 0.201416%)" offset="0.953125"/><stop stop-opacity="1" stop-color="rgb(91.934204%, 64.273071%, 0.190735%)" offset="0.96875"/><stop stop-opacity="1" stop-color="rgb(92.163086%, 64.450073%, 0.180054%)" offset="0.984375"/><stop stop-opacity="1" stop-color="rgb(92.391968%, 64.628601%, 0.169373%)" offset="1"/></linearGradient><clipPath id="cff947cc5e"><path d="M 39 90 L 41 90 L 41 101 L 39 101 Z M 39 90 " clip-rule="nonzero"/></clipPath><clipPath id="910d56f74d"><path d="M 40.957031 100.597656 C 40.554688 98.242188 40.183594 95.023438 39.84375 90.941406 C 39.449219 90.996094 39.335938 91.625 39.335938 92.113281 C 39.339844 94.984375 39.3125 96.796875 39.386719 98.167969 C 39.441406 99.21875 40.113281 99.980469 40.957031 100.597656 Z M 40.957031 100.597656 " clip-rule="evenodd"/></clipPath><linearGradient x1="9672.433136" gradientTransform="matrix(0.001694, 0, 0, 0.00169766, 28.985416, 28.889039)" y1="36635.49719" x2="9487.056743" gradientUnits="userSpaceOnUse" y2="42349.019262" id="f549299694"><stop stop-opacity="1" stop-color="rgb(60.655212%, 41.642761%, 0.614929%)" offset="0"/><stop stop-opacity="1" stop-color="rgb(60.53772%, 41.56189%, 0.613403%)" offset="0.00551386"/><stop stop-opacity="1" stop-color="rgb(60.420227%, 41.481018%, 0.613403%)" offset="0.0078125"/><stop stop-opacity="1" stop-color="rgb(60.302734%, 41.400146%, 0.611877%)" offset="0.015625"/><stop stop-opacity="1" stop-color="rgb(60.067749%, 41.239929%, 0.608826%)" offset="0.0234375"/><stop stop-opacity="1" stop-color="rgb(59.83429%, 41.078186%, 0.605774%)" offset="0.03125"/><stop stop-opacity="1" stop-color="rgb(59.599304%, 40.916443%, 0.604248%)" offset="0.0390625"/><stop stop-opacity="1" stop-color="rgb(59.364319%, 40.756226%, 0.601196%)" offset="0.046875"/><stop stop-opacity="1" stop-color="rgb(59.129333%, 40.594482%, 0.59967%)" offset="0.0546875"/><stop stop-opacity="1" stop-color="rgb(58.894348%, 40.432739%, 0.596619%)" offset="0.0625"/><stop stop-opacity="1" stop-color="rgb(58.659363%, 40.272522%, 0.595093%)" offset="0.0703125"/><stop stop-opacity="1" stop-color="rgb(58.424377%, 40.110779%, 0.592041%)" offset="0.078125"/><stop stop-opacity="1" stop-color="rgb(58.189392%, 39.949036%, 0.588989%)" offset="0.0859375"/><stop stop-opacity="1" stop-color="rgb(57.954407%, 39.788818%, 0.587463%)" offset="0.09375"/><stop stop-opacity="1" stop-color="rgb(57.719421%, 39.627075%, 0.584412%)" offset="0.101563"/><stop stop-opacity="1" stop-color="rgb(57.485962%, 39.465332%, 0.582886%)" offset="0.109375"/><stop stop-opacity="1" stop-color="rgb(57.250977%, 39.305115%, 0.579834%)" offset="0.117187"/><stop stop-opacity="1" stop-color="rgb(57.015991%, 39.143372%, 0.578308%)" offset="0.125"/><stop stop-opacity="1" stop-color="rgb(56.781006%, 38.981628%, 0.575256%)" offset="0.132813"/><stop stop-opacity="1" stop-color="rgb(56.546021%, 38.821411%, 0.57373%)" offset="0.140625"/><stop stop-opacity="1" stop-color="rgb(56.311035%, 38.659668%, 0.570679%)" offset="0.148438"/><stop stop-opacity="1" stop-color="rgb(56.07605%, 38.497925%, 0.567627%)" offset="0.15625"/><stop stop-opacity="1" stop-color="rgb(55.841064%, 38.337708%, 0.566101%)" offset="0.164062"/><stop stop-opacity="1" stop-color="rgb(55.606079%, 38.175964%, 0.563049%)" offset="0.171875"/><stop stop-opacity="1" stop-color="rgb(55.371094%, 38.014221%, 0.561523%)" offset="0.179688"/><stop stop-opacity="1" stop-color="rgb(55.137634%, 37.854004%, 0.558472%)" offset="0.1875"/><stop stop-opacity="1" stop-color="rgb(54.902649%, 37.692261%, 0.556946%)" offset="0.195313"/><stop stop-opacity="1" stop-color="rgb(54.667664%, 37.532043%, 0.553894%)" offset="0.203125"/><stop stop-opacity="1" stop-color="rgb(54.432678%, 37.3703%, 0.550842%)" offset="0.210937"/><stop stop-opacity="1" stop-color="rgb(54.197693%, 37.208557%, 0.549316%)" offset="0.21875"/><stop stop-opacity="1" stop-color="rgb(53.962708%, 37.04834%, 0.546265%)" offset="0.226563"/><stop stop-opacity="1" stop-color="rgb(53.727722%, 36.886597%, 0.544739%)" offset="0.234375"/><stop stop-opacity="1" stop-color="rgb(53.492737%, 36.724854%, 0.541687%)" offset="0.242188"/><stop stop-opacity="1" stop-color="rgb(53.257751%, 36.564636%, 0.540161%)" offset="0.25"/><stop stop-opacity="1" stop-color="rgb(53.022766%, 36.402893%, 0.537109%)" offset="0.257812"/><stop stop-opacity="1" stop-color="rgb(52.789307%, 36.24115%, 0.535583%)" offset="0.265625"/><stop stop-opacity="1" stop-color="rgb(52.554321%, 36.080933%, 0.532532%)" offset="0.273438"/><stop stop-opacity="1" stop-color="rgb(52.319336%, 35.919189%, 0.52948%)" offset="0.28125"/><stop stop-opacity="1" stop-color="rgb(52.084351%, 35.757446%, 0.527954%)" offset="0.289063"/><stop stop-opacity="1" stop-color="rgb(51.849365%, 35.597229%, 0.524902%)" offset="0.296875"/><stop stop-opacity="1" stop-color="rgb(51.61438%, 35.435486%, 0.523376%)" offset="0.304688"/><stop stop-opacity="1" stop-color="rgb(51.379395%, 35.273743%, 0.520325%)" offset="0.3125"/><stop stop-opacity="1" stop-color="rgb(51.144409%, 35.113525%, 0.518799%)" offset="0.320313"/><stop stop-opacity="1" stop-color="rgb(50.909424%, 34.951782%, 0.515747%)" offset="0.328125"/><stop stop-opacity="1" stop-color="rgb(50.675964%, 34.790039%, 0.512695%)" offset="0.335938"/><stop stop-opacity="1" stop-color="rgb(50.440979%, 34.629822%, 0.511169%)" offset="0.34375"/><stop stop-opacity="1" stop-color="rgb(50.205994%, 34.468079%, 0.508118%)" offset="0.351562"/><stop stop-opacity="1" stop-color="rgb(49.971008%, 34.306335%, 0.506592%)" offset="0.359375"/><stop stop-opacity="1" stop-color="rgb(49.736023%, 34.146118%, 0.50354%)" offset="0.367188"/><stop stop-opacity="1" stop-color="rgb(49.501038%, 33.984375%, 0.502014%)" offset="0.375"/><stop stop-opacity="1" stop-color="rgb(49.266052%, 33.822632%, 0.498962%)" offset="0.382813"/><stop stop-opacity="1" stop-color="rgb(49.031067%, 33.662415%, 0.497437%)" offset="0.390625"/><stop stop-opacity="1" stop-color="rgb(48.796082%, 33.500671%, 0.494385%)" offset="0.398438"/><stop stop-opacity="1" stop-color="rgb(48.561096%, 33.338928%, 0.491333%)" offset="0.40625"/><stop stop-opacity="1" stop-color="rgb(48.327637%, 33.178711%, 0.489807%)" offset="0.414063"/><stop stop-opacity="1" stop-color="rgb(48.092651%, 33.016968%, 0.486755%)" offset="0.421875"/><stop stop-opacity="1" stop-color="rgb(47.857666%, 32.855225%, 0.485229%)" offset="0.429688"/><stop stop-opacity="1" stop-color="rgb(47.622681%, 32.695007%, 0.482178%)" offset="0.4375"/><stop stop-opacity="1" stop-color="rgb(47.387695%, 32.533264%, 0.480652%)" offset="0.445312"/><stop stop-opacity="1" stop-color="rgb(47.15271%, 32.371521%, 0.4776%)" offset="0.453125"/><stop stop-opacity="1" stop-color="rgb(46.917725%, 32.211304%, 0.474548%)" offset="0.460938"/><stop stop-opacity="1" stop-color="rgb(46.682739%, 32.049561%, 0.473022%)" offset="0.46875"/><stop stop-opacity="1" stop-color="rgb(46.447754%, 31.887817%, 0.469971%)" offset="0.476563"/><stop stop-opacity="1" stop-color="rgb(46.212769%, 31.7276%, 0.468445%)" offset="0.484375"/><stop stop-opacity="1" stop-color="rgb(45.979309%, 31.565857%, 0.465393%)" offset="0.492188"/><stop stop-opacity="1" stop-color="rgb(45.744324%, 31.40564%, 0.463867%)" offset="0.5"/><stop stop-opacity="1" stop-color="rgb(45.509338%, 31.243896%, 0.460815%)" offset="0.507813"/><stop stop-opacity="1" stop-color="rgb(45.274353%, 31.082153%, 0.45929%)" offset="0.515625"/><stop stop-opacity="1" stop-color="rgb(45.039368%, 30.921936%, 0.456238%)" offset="0.523438"/><stop stop-opacity="1" stop-color="rgb(44.804382%, 30.760193%, 0.453186%)" offset="0.53125"/><stop stop-opacity="1" stop-color="rgb(44.569397%, 30.59845%, 0.45166%)" offset="0.539062"/><stop stop-opacity="1" stop-color="rgb(44.334412%, 30.438232%, 0.448608%)" offset="0.546875"/><stop stop-opacity="1" stop-color="rgb(44.099426%, 30.276489%, 0.447083%)" offset="0.554688"/><stop stop-opacity="1" stop-color="rgb(43.864441%, 30.114746%, 0.444031%)" offset="0.5625"/><stop stop-opacity="1" stop-color="rgb(43.630981%, 29.954529%, 0.442505%)" offset="0.570313"/><stop stop-opacity="1" stop-color="rgb(43.395996%, 29.792786%, 0.439453%)" offset="0.578125"/><stop stop-opacity="1" stop-color="rgb(43.161011%, 29.631042%, 0.436401%)" offset="0.585938"/><stop stop-opacity="1" stop-color="rgb(42.926025%, 29.470825%, 0.434875%)" offset="0.59375"/><stop stop-opacity="1" stop-color="rgb(42.69104%, 29.309082%, 0.431824%)" offset="0.601563"/><stop stop-opacity="1" stop-color="rgb(42.456055%, 29.147339%, 0.430298%)" offset="0.609375"/><stop stop-opacity="1" stop-color="rgb(42.221069%, 28.987122%, 0.427246%)" offset="0.617188"/><stop stop-opacity="1" stop-color="rgb(41.986084%, 28.825378%, 0.42572%)" offset="0.625"/><stop stop-opacity="1" stop-color="rgb(41.751099%, 28.663635%, 0.422668%)" offset="0.632812"/><stop stop-opacity="1" stop-color="rgb(41.517639%, 28.503418%, 0.421143%)" offset="0.640625"/><stop stop-opacity="1" stop-color="rgb(41.282654%, 28.341675%, 0.418091%)" offset="0.648438"/><stop stop-opacity="1" stop-color="rgb(41.047668%, 28.179932%, 0.415039%)" offset="0.65625"/><stop stop-opacity="1" stop-color="rgb(40.812683%, 28.019714%, 0.413513%)" offset="0.664063"/><stop stop-opacity="1" stop-color="rgb(40.577698%, 27.857971%, 0.410461%)" offset="0.671875"/><stop stop-opacity="1" stop-color="rgb(40.342712%, 27.696228%, 0.408936%)" offset="0.679688"/><stop stop-opacity="1" stop-color="rgb(40.107727%, 27.536011%, 0.405884%)" offset="0.6875"/><stop stop-opacity="1" stop-color="rgb(39.872742%, 27.374268%, 0.404358%)" offset="0.695313"/><stop stop-opacity="1" stop-color="rgb(39.637756%, 27.212524%, 0.401306%)" offset="0.703125"/><stop stop-opacity="1" stop-color="rgb(39.402771%, 27.052307%, 0.398254%)" offset="0.710937"/><stop stop-opacity="1" stop-color="rgb(39.169312%, 26.890564%, 0.396729%)" offset="0.71875"/><stop stop-opacity="1" stop-color="rgb(38.934326%, 26.728821%, 0.393677%)" offset="0.726562"/><stop stop-opacity="1" stop-color="rgb(38.699341%, 26.568604%, 0.392151%)" offset="0.734375"/><stop stop-opacity="1" stop-color="rgb(38.464355%, 26.40686%, 0.389099%)" offset="0.742188"/><stop stop-opacity="1" stop-color="rgb(38.22937%, 26.245117%, 0.387573%)" offset="0.75"/><stop stop-opacity="1" stop-color="rgb(37.994385%, 26.0849%, 0.384521%)" offset="0.757813"/><stop stop-opacity="1" stop-color="rgb(37.759399%, 25.923157%, 0.382996%)" offset="0.765625"/><stop stop-opacity="1" stop-color="rgb(37.524414%, 25.761414%, 0.379944%)" offset="0.773438"/><stop stop-opacity="1" stop-color="rgb(37.289429%, 25.601196%, 0.376892%)" offset="0.78125"/><stop stop-opacity="1" stop-color="rgb(37.054443%, 25.439453%, 0.375366%)" offset="0.789063"/><stop stop-opacity="1" stop-color="rgb(36.820984%, 25.279236%, 0.372314%)" offset="0.796875"/><stop stop-opacity="1" stop-color="rgb(36.585999%, 25.117493%, 0.370789%)" offset="0.804687"/><stop stop-opacity="1" stop-color="rgb(36.351013%, 24.95575%, 0.367737%)" offset="0.8125"/><stop stop-opacity="1" stop-color="rgb(36.116028%, 24.795532%, 0.366211%)" offset="0.820312"/><stop stop-opacity="1" stop-color="rgb(35.881042%, 24.633789%, 0.363159%)" offset="0.828125"/><stop stop-opacity="1" stop-color="rgb(35.646057%, 24.472046%, 0.360107%)" offset="0.835938"/><stop stop-opacity="1" stop-color="rgb(35.411072%, 24.311829%, 0.358582%)" offset="0.84375"/><stop stop-opacity="1" stop-color="rgb(35.176086%, 24.150085%, 0.35553%)" offset="0.851563"/><stop stop-opacity="1" stop-color="rgb(34.941101%, 23.988342%, 0.354004%)" offset="0.859375"/><stop stop-opacity="1" stop-color="rgb(34.706116%, 23.828125%, 0.350952%)" offset="0.867188"/><stop stop-opacity="1" stop-color="rgb(34.472656%, 23.666382%, 0.349426%)" offset="0.875"/><stop stop-opacity="1" stop-color="rgb(34.237671%, 23.504639%, 0.346375%)" offset="0.882813"/><stop stop-opacity="1" stop-color="rgb(34.002686%, 23.344421%, 0.344849%)" offset="0.890625"/><stop stop-opacity="1" stop-color="rgb(33.7677%, 23.182678%, 0.341797%)" offset="0.898437"/><stop stop-opacity="1" stop-color="rgb(33.532715%, 23.020935%, 0.338745%)" offset="0.90625"/><stop stop-opacity="1" stop-color="rgb(33.297729%, 22.860718%, 0.337219%)" offset="0.914062"/><stop stop-opacity="1" stop-color="rgb(33.062744%, 22.698975%, 0.334167%)" offset="0.921875"/><stop stop-opacity="1" stop-color="rgb(32.827759%, 22.537231%, 0.332642%)" offset="0.929688"/><stop stop-opacity="1" stop-color="rgb(32.592773%, 22.377014%, 0.32959%)" offset="0.9375"/><stop stop-opacity="1" stop-color="rgb(32.359314%, 22.215271%, 0.328064%)" offset="0.945313"/><stop stop-opacity="1" stop-color="rgb(32.124329%, 22.053528%, 0.325012%)" offset="0.953125"/><stop stop-opacity="1" stop-color="rgb(31.889343%, 21.893311%, 0.32196%)" offset="0.960938"/><stop stop-opacity="1" stop-color="rgb(31.654358%, 21.731567%, 0.320435%)" offset="0.96875"/><stop stop-opacity="1" stop-color="rgb(31.419373%, 21.569824%, 0.317383%)" offset="0.976563"/><stop stop-opacity="1" stop-color="rgb(31.184387%, 21.409607%, 0.315857%)" offset="0.984375"/><stop stop-opacity="1" stop-color="rgb(30.949402%, 21.247864%, 0.312805%)" offset="0.992188"/><stop stop-opacity="1" stop-color="rgb(30.714417%, 21.086121%, 0.311279%)" offset="0.994486"/><stop stop-opacity="1" stop-color="rgb(30.596924%, 21.006775%, 0.309753%)" offset="1"/></linearGradient><clipPath id="029d8e4726"><path d="M 60 70 L 75 70 L 75 85 L 60 85 Z M 60 70 " clip-rule="nonzero"/></clipPath><clipPath id="faa70358ee"><path d="M 74.78125 70.414062 C 74.257812 78.527344 73.789062 83.519531 73.789062 83.519531 C 69.292969 83.691406 65.222656 83.886719 60.957031 84.132812 C 60.957031 84.132812 62.609375 79.828125 65.90625 71.222656 C 65.878906 71.238281 65.203125 71.105469 63.878906 70.824219 C 70.5625 70.320312 74.195312 70.183594 74.78125 70.414062 Z M 74.78125 70.414062 " clip-rule="evenodd"/></clipPath><linearGradient x1="27539.247956" gradientTransform="matrix(0.001694, 0, 0, 0.00169766, 28.985416, 28.889039)" y1="30193.536962" x2="18737.095758" gradientUnits="userSpaceOnUse" y2="30952.725953" id="454df46b86"><stop stop-opacity="1" stop-color="rgb(67.709351%, 67.709351%, 67.709351%)" offset="0"/><stop stop-opacity="1" stop-color="rgb(67.81311%, 67.81311%, 67.81311%)" offset="0.0078125"/><stop stop-opacity="1" stop-color="rgb(68.022156%, 68.022156%, 68.022156%)" offset="0.015625"/><stop stop-opacity="1" stop-color="rgb(68.229675%, 68.229675%, 68.229675%)" offset="0.0234375"/><stop stop-opacity="1" stop-color="rgb(68.438721%, 68.438721%, 68.438721%)" offset="0.03125"/><stop stop-opacity="1" stop-color="rgb(68.64624%, 68.64624%, 68.64624%)" offset="0.0390625"/><stop stop-opacity="1" stop-color="rgb(68.85376%, 68.85376%, 68.85376%)" offset="0.046875"/><stop stop-opacity="1" stop-color="rgb(69.062805%, 69.062805%, 69.062805%)" offset="0.0546875"/><stop stop-opacity="1" stop-color="rgb(69.270325%, 69.270325%, 69.270325%)" offset="0.0625"/><stop stop-opacity="1" stop-color="rgb(69.47937%, 69.47937%, 69.47937%)" offset="0.0703125"/><stop stop-opacity="1" stop-color="rgb(69.68689%, 69.68689%, 69.68689%)" offset="0.078125"/><stop stop-opacity="1" stop-color="rgb(69.894409%, 69.894409%, 69.894409%)" offset="0.0799123"/><stop stop-opacity="1" stop-color="rgb(69.999695%, 69.999695%, 69.999695%)" offset="0.0859375"/><stop stop-opacity="1" stop-color="rgb(70.103455%, 70.103455%, 70.103455%)" offset="0.09375"/><stop stop-opacity="1" stop-color="rgb(70.310974%, 70.310974%, 70.310974%)" offset="0.101563"/><stop stop-opacity="1" stop-color="rgb(70.52002%, 70.52002%, 70.52002%)" offset="0.109375"/><stop stop-opacity="1" stop-color="rgb(70.727539%, 70.727539%, 70.727539%)" offset="0.117188"/><stop stop-opacity="1" stop-color="rgb(70.935059%, 70.935059%, 70.935059%)" offset="0.125"/><stop stop-opacity="1" stop-color="rgb(71.144104%, 71.144104%, 71.144104%)" offset="0.132812"/><stop stop-opacity="1" stop-color="rgb(71.351624%, 71.351624%, 71.351624%)" offset="0.140625"/><stop stop-opacity="1" stop-color="rgb(71.560669%, 71.560669%, 71.560669%)" offset="0.148437"/><stop stop-opacity="1" stop-color="rgb(71.768188%, 71.768188%, 71.768188%)" offset="0.15625"/><stop stop-opacity="1" stop-color="rgb(71.975708%, 71.975708%, 71.975708%)" offset="0.164063"/><stop stop-opacity="1" stop-color="rgb(72.184753%, 72.184753%, 72.184753%)" offset="0.171875"/><stop stop-opacity="1" stop-color="rgb(72.392273%, 72.392273%, 72.392273%)" offset="0.179688"/><stop stop-opacity="1" stop-color="rgb(72.601318%, 72.601318%, 72.601318%)" offset="0.1875"/><stop stop-opacity="1" stop-color="rgb(72.808838%, 72.808838%, 72.808838%)" offset="0.195312"/><stop stop-opacity="1" stop-color="rgb(73.016357%, 73.016357%, 73.016357%)" offset="0.203125"/><stop stop-opacity="1" stop-color="rgb(73.225403%, 73.225403%, 73.225403%)" offset="0.210937"/><stop stop-opacity="1" stop-color="rgb(73.432922%, 73.432922%, 73.432922%)" offset="0.21875"/><stop stop-opacity="1" stop-color="rgb(73.641968%, 73.641968%, 73.641968%)" offset="0.226563"/><stop stop-opacity="1" stop-color="rgb(73.849487%, 73.849487%, 73.849487%)" offset="0.234375"/><stop stop-opacity="1" stop-color="rgb(74.057007%, 74.057007%, 74.057007%)" offset="0.242188"/><stop stop-opacity="1" stop-color="rgb(74.266052%, 74.266052%, 74.266052%)" offset="0.25"/><stop stop-opacity="1" stop-color="rgb(74.473572%, 74.473572%, 74.473572%)" offset="0.257812"/><stop stop-opacity="1" stop-color="rgb(74.682617%, 74.682617%, 74.682617%)" offset="0.265625"/><stop stop-opacity="1" stop-color="rgb(74.890137%, 74.890137%, 74.890137%)" offset="0.273437"/><stop stop-opacity="1" stop-color="rgb(75.097656%, 75.097656%, 75.097656%)" offset="0.28125"/><stop stop-opacity="1" stop-color="rgb(75.306702%, 75.306702%, 75.306702%)" offset="0.289063"/><stop stop-opacity="1" stop-color="rgb(75.514221%, 75.514221%, 75.514221%)" offset="0.296875"/><stop stop-opacity="1" stop-color="rgb(75.723267%, 75.723267%, 75.723267%)" offset="0.304688"/><stop stop-opacity="1" stop-color="rgb(75.930786%, 75.930786%, 75.930786%)" offset="0.3125"/><stop stop-opacity="1" stop-color="rgb(76.138306%, 76.138306%, 76.138306%)" offset="0.320312"/><stop stop-opacity="1" stop-color="rgb(76.347351%, 76.347351%, 76.347351%)" offset="0.328125"/><stop stop-opacity="1" stop-color="rgb(76.554871%, 76.554871%, 76.554871%)" offset="0.335937"/><stop stop-opacity="1" stop-color="rgb(76.763916%, 76.763916%, 76.763916%)" offset="0.34375"/><stop stop-opacity="1" stop-color="rgb(76.971436%, 76.971436%, 76.971436%)" offset="0.351563"/><stop stop-opacity="1" stop-color="rgb(77.178955%, 77.178955%, 77.178955%)" offset="0.359375"/><stop stop-opacity="1" stop-color="rgb(77.388%, 77.388%, 77.388%)" offset="0.367188"/><stop stop-opacity="1" stop-color="rgb(77.59552%, 77.59552%, 77.59552%)" offset="0.375"/><stop stop-opacity="1" stop-color="rgb(77.804565%, 77.804565%, 77.804565%)" offset="0.382812"/><stop stop-opacity="1" stop-color="rgb(78.012085%, 78.012085%, 78.012085%)" offset="0.390625"/><stop stop-opacity="1" stop-color="rgb(78.219604%, 78.219604%, 78.219604%)" offset="0.398437"/><stop stop-opacity="1" stop-color="rgb(78.42865%, 78.42865%, 78.42865%)" offset="0.40625"/><stop stop-opacity="1" stop-color="rgb(78.636169%, 78.636169%, 78.636169%)" offset="0.414062"/><stop stop-opacity="1" stop-color="rgb(78.845215%, 78.845215%, 78.845215%)" offset="0.421875"/><stop stop-opacity="1" stop-color="rgb(79.052734%, 79.052734%, 79.052734%)" offset="0.429687"/><stop stop-opacity="1" stop-color="rgb(79.260254%, 79.260254%, 79.260254%)" offset="0.4375"/><stop stop-opacity="1" stop-color="rgb(79.469299%, 79.469299%, 79.469299%)" offset="0.445312"/><stop stop-opacity="1" stop-color="rgb(79.676819%, 79.676819%, 79.676819%)" offset="0.453125"/><stop stop-opacity="1" stop-color="rgb(79.885864%, 79.885864%, 79.885864%)" offset="0.460937"/><stop stop-opacity="1" stop-color="rgb(80.093384%, 80.093384%, 80.093384%)" offset="0.46875"/><stop stop-opacity="1" stop-color="rgb(80.300903%, 80.300903%, 80.300903%)" offset="0.476562"/><stop stop-opacity="1" stop-color="rgb(80.509949%, 80.509949%, 80.509949%)" offset="0.484375"/><stop stop-opacity="1" stop-color="rgb(80.717468%, 80.717468%, 80.717468%)" offset="0.492187"/><stop stop-opacity="1" stop-color="rgb(80.926514%, 80.926514%, 80.926514%)" offset="0.5"/><stop stop-opacity="1" stop-color="rgb(81.134033%, 81.134033%, 81.134033%)" offset="0.507813"/><stop stop-opacity="1" stop-color="rgb(81.341553%, 81.341553%, 81.341553%)" offset="0.515625"/><stop stop-opacity="1" stop-color="rgb(81.550598%, 81.550598%, 81.550598%)" offset="0.523438"/><stop stop-opacity="1" stop-color="rgb(81.758118%, 81.758118%, 81.758118%)" offset="0.53125"/><stop stop-opacity="1" stop-color="rgb(81.967163%, 81.967163%, 81.967163%)" offset="0.539062"/><stop stop-opacity="1" stop-color="rgb(82.174683%, 82.174683%, 82.174683%)" offset="0.546875"/><stop stop-opacity="1" stop-color="rgb(82.382202%, 82.382202%, 82.382202%)" offset="0.554687"/><stop stop-opacity="1" stop-color="rgb(82.591248%, 82.591248%, 82.591248%)" offset="0.5625"/><stop stop-opacity="1" stop-color="rgb(82.798767%, 82.798767%, 82.798767%)" offset="0.570312"/><stop stop-opacity="1" stop-color="rgb(83.007812%, 83.007812%, 83.007812%)" offset="0.578125"/><stop stop-opacity="1" stop-color="rgb(83.215332%, 83.215332%, 83.215332%)" offset="0.585937"/><stop stop-opacity="1" stop-color="rgb(83.422852%, 83.422852%, 83.422852%)" offset="0.59375"/><stop stop-opacity="1" stop-color="rgb(83.631897%, 83.631897%, 83.631897%)" offset="0.601563"/><stop stop-opacity="1" stop-color="rgb(83.839417%, 83.839417%, 83.839417%)" offset="0.609375"/><stop stop-opacity="1" stop-color="rgb(84.048462%, 84.048462%, 84.048462%)" offset="0.617188"/><stop stop-opacity="1" stop-color="rgb(84.255981%, 84.255981%, 84.255981%)" offset="0.625"/><stop stop-opacity="1" stop-color="rgb(84.463501%, 84.463501%, 84.463501%)" offset="0.632812"/><stop stop-opacity="1" stop-color="rgb(84.672546%, 84.672546%, 84.672546%)" offset="0.640625"/><stop stop-opacity="1" stop-color="rgb(84.880066%, 84.880066%, 84.880066%)" offset="0.648438"/><stop stop-opacity="1" stop-color="rgb(85.089111%, 85.089111%, 85.089111%)" offset="0.65625"/><stop stop-opacity="1" stop-color="rgb(85.296631%, 85.296631%, 85.296631%)" offset="0.664062"/><stop stop-opacity="1" stop-color="rgb(85.50415%, 85.50415%, 85.50415%)" offset="0.671875"/><stop stop-opacity="1" stop-color="rgb(85.713196%, 85.713196%, 85.713196%)" offset="0.679687"/><stop stop-opacity="1" stop-color="rgb(85.920715%, 85.920715%, 85.920715%)" offset="0.6875"/><stop stop-opacity="1" stop-color="rgb(86.129761%, 86.129761%, 86.129761%)" offset="0.695313"/><stop stop-opacity="1" stop-color="rgb(86.33728%, 86.33728%, 86.33728%)" offset="0.703125"/><stop stop-opacity="1" stop-color="rgb(86.5448%, 86.5448%, 86.5448%)" offset="0.710938"/><stop stop-opacity="1" stop-color="rgb(86.753845%, 86.753845%, 86.753845%)" offset="0.71875"/><stop stop-opacity="1" stop-color="rgb(86.961365%, 86.961365%, 86.961365%)" offset="0.726563"/><stop stop-opacity="1" stop-color="rgb(87.17041%, 87.17041%, 87.17041%)" offset="0.734375"/><stop stop-opacity="1" stop-color="rgb(87.37793%, 87.37793%, 87.37793%)" offset="0.742188"/><stop stop-opacity="1" stop-color="rgb(87.585449%, 87.585449%, 87.585449%)" offset="0.75"/><stop stop-opacity="1" stop-color="rgb(87.794495%, 87.794495%, 87.794495%)" offset="0.757812"/><stop stop-opacity="1" stop-color="rgb(88.002014%, 88.002014%, 88.002014%)" offset="0.765625"/><stop stop-opacity="1" stop-color="rgb(88.21106%, 88.21106%, 88.21106%)" offset="0.773438"/><stop stop-opacity="1" stop-color="rgb(88.418579%, 88.418579%, 88.418579%)" offset="0.78125"/><stop stop-opacity="1" stop-color="rgb(88.626099%, 88.626099%, 88.626099%)" offset="0.789062"/><stop stop-opacity="1" stop-color="rgb(88.835144%, 88.835144%, 88.835144%)" offset="0.796875"/><stop stop-opacity="1" stop-color="rgb(89.042664%, 89.042664%, 89.042664%)" offset="0.804687"/><stop stop-opacity="1" stop-color="rgb(89.251709%, 89.251709%, 89.251709%)" offset="0.8125"/><stop stop-opacity="1" stop-color="rgb(89.459229%, 89.459229%, 89.459229%)" offset="0.820313"/><stop stop-opacity="1" stop-color="rgb(89.666748%, 89.666748%, 89.666748%)" offset="0.828125"/><stop stop-opacity="1" stop-color="rgb(89.875793%, 89.875793%, 89.875793%)" offset="0.835938"/><stop stop-opacity="1" stop-color="rgb(90.083313%, 90.083313%, 90.083313%)" offset="0.84375"/><stop stop-opacity="1" stop-color="rgb(90.292358%, 90.292358%, 90.292358%)" offset="0.851563"/><stop stop-opacity="1" stop-color="rgb(90.499878%, 90.499878%, 90.499878%)" offset="0.859375"/><stop stop-opacity="1" stop-color="rgb(90.707397%, 90.707397%, 90.707397%)" offset="0.867188"/><stop stop-opacity="1" stop-color="rgb(90.916443%, 90.916443%, 90.916443%)" offset="0.875"/><stop stop-opacity="1" stop-color="rgb(91.123962%, 91.123962%, 91.123962%)" offset="0.882812"/><stop stop-opacity="1" stop-color="rgb(91.333008%, 91.333008%, 91.333008%)" offset="0.890625"/><stop stop-opacity="1" stop-color="rgb(91.540527%, 91.540527%, 91.540527%)" offset="0.898438"/><stop stop-opacity="1" stop-color="rgb(91.748047%, 91.748047%, 91.748047%)" offset="0.90625"/><stop stop-opacity="1" stop-color="rgb(91.957092%, 91.957092%, 91.957092%)" offset="0.914062"/><stop stop-opacity="1" stop-color="rgb(92.164612%, 92.164612%, 92.164612%)" offset="0.920088"/><stop stop-opacity="1" stop-color="rgb(92.269897%, 92.269897%, 92.269897%)" offset="0.921875"/><stop stop-opacity="1" stop-color="rgb(92.373657%, 92.373657%, 92.373657%)" offset="0.929687"/><stop stop-opacity="1" stop-color="rgb(92.581177%, 92.581177%, 92.581177%)" offset="0.9375"/><stop stop-opacity="1" stop-color="rgb(92.788696%, 92.788696%, 92.788696%)" offset="0.945313"/><stop stop-opacity="1" stop-color="rgb(92.997742%, 92.997742%, 92.997742%)" offset="0.953125"/><stop stop-opacity="1" stop-color="rgb(93.205261%, 93.205261%, 93.205261%)" offset="0.960938"/><stop stop-opacity="1" stop-color="rgb(93.414307%, 93.414307%, 93.414307%)" offset="0.96875"/><stop stop-opacity="1" stop-color="rgb(93.621826%, 93.621826%, 93.621826%)" offset="0.976563"/><stop stop-opacity="1" stop-color="rgb(93.829346%, 93.829346%, 93.829346%)" offset="0.984375"/><stop stop-opacity="1" stop-color="rgb(94.038391%, 94.038391%, 94.038391%)" offset="0.992188"/><stop stop-opacity="1" stop-color="rgb(94.245911%, 94.245911%, 94.245911%)" offset="1"/></linearGradient><clipPath id="e78197c72f"><path d="M 53 61.03125 L 87 61.03125 L 87 66 L 53 66 Z M 53 61.03125 " clip-rule="nonzero"/></clipPath></defs><g clip-path="url(#2cae736911)"><path fill="#000000" d="M 149.34375 118.320312 C 130.359375 116.292969 62.878906 118.5 38.347656 122.277344 C 71.605469 124.625 90.515625 126.109375 90.515625 126.109375 C 120.15625 122.402344 149.34375 118.320312 149.34375 118.320312 Z M 149.34375 118.320312 " fill-opacity="1" fill-rule="evenodd"/></g><g clip-path="url(#3b739df7d4)"><path fill="#000000" d="M 39.648438 87.445312 C 39.234375 87.503906 39.007812 87.726562 38.976562 88.121094 C 38.976562 88.121094 38.9375 88.597656 38.863281 89.542969 C 38.40625 89.765625 38.121094 90.234375 38.019531 90.949219 C 37.828125 93.15625 37.792969 96.035156 37.914062 99.585938 C 37.96875 100.160156 38.367188 100.847656 39.109375 101.640625 C 39.109375 101.640625 39.09375 101.871094 39.035156 102.601562 C 38.417969 103.046875 37.972656 103.957031 37.960938 104.894531 C 37.921875 108.765625 38.046875 111.808594 38.332031 114.023438 C 38.441406 114.621094 39.464844 115.085938 41.414062 115.410156 C 41.414062 115.410156 44.414062 115.488281 50.410156 115.644531 C 52.457031 123.230469 63.199219 124.035156 67.066406 117.386719 C 67.066406 117.386719 71.632812 117.476562 80.761719 117.664062 C 82.050781 120.171875 83.789062 121.777344 85.976562 122.488281 C 90.402344 123.921875 95.300781 122.523438 97.503906 119.058594 C 97.503906 119.058594 98.402344 119.085938 100.195312 119.128906 C 100.195312 119.128906 100.199219 118.910156 100.210938 118.476562 C 100.210938 118.476562 102.09375 118.550781 104.402344 118.660156 C 106.484375 118.683594 108.015625 117.5625 108.988281 115.308594 C 108.988281 115.308594 110.863281 115.253906 114.613281 115.144531 C 117.148438 115.761719 119.066406 116.058594 120.363281 116.023438 C 120.777344 116.015625 121.421875 115.90625 122.292969 115.6875 C 122.546875 117.214844 123.328125 118.304688 124.636719 118.949219 C 124.636719 118.949219 127.367188 118.980469 132.828125 119.046875 C 134.238281 119.070312 135.246094 117.707031 135.859375 114.960938 C 135.859375 114.960938 136.558594 114.972656 137.957031 114.996094 C 138.160156 114.949219 138.261719 114.835938 138.253906 114.65625 C 138.253906 114.65625 138.328125 111.753906 138.476562 105.945312 C 138.476562 105.945312 140.335938 105.929688 144.058594 105.898438 C 144.417969 105.96875 144.601562 105.78125 144.613281 105.332031 C 144.613281 105.332031 144.609375 104.546875 144.597656 102.980469 C 144.597656 102.980469 146.234375 102.042969 149.515625 100.175781 C 149.515625 100.175781 149.53125 99.570312 149.566406 98.363281 C 149.566406 98.363281 137.074219 97.269531 112.089844 95.082031 C 112.089844 95.082031 109.738281 86.445312 105.039062 69.175781 C 104.746094 68.59375 104.1875 68.195312 103.355469 67.976562 C 103.355469 67.976562 102.128906 67.695312 99.664062 67.128906 C 99.292969 67.039062 98.867188 67.125 98.390625 67.386719 C 97.972656 66.796875 97.234375 66.511719 96.398438 66.363281 C 93.3125 65.8125 90.371094 65.335938 87.574219 64.921875 C 87.597656 64.519531 87.65625 63.488281 87.671875 62.839844 C 87.671875 62.839844 86.25 62.234375 83.410156 61.03125 C 83.410156 61.03125 73.238281 62.378906 52.902344 65.066406 L 52.902344 66.105469 C 50.78125 66.390625 48.59375 66.699219 46.324219 67.042969 C 44.402344 67.332031 43.675781 67.996094 43.011719 69.621094 C 40.714844 70 38.652344 70.65625 38.269531 71.84375 C 38.199219 74.941406 38.167969 76.488281 38.167969 76.488281 C 37.863281 76.496094 37.6875 76.605469 37.640625 76.820312 C 37.625 77.449219 37.617188 77.765625 37.617188 77.765625 C 37.855469 78.003906 37.972656 78.121094 37.972656 78.121094 C 37.933594 81.617188 37.914062 83.367188 37.914062 83.367188 C 37.65625 83.460938 37.527344 83.507812 37.527344 83.507812 C 37.4375 84.25 37.542969 84.628906 37.84375 84.65625 C 37.863281 85.351562 37.875 85.699219 37.875 85.699219 C 37.90625 86.648438 38.503906 87.152344 39.667969 87.203125 L 39.648438 87.449219 Z M 42.730469 70.371094 L 42.714844 70.410156 C 41.890625 72.773438 40.808594 77.003906 40.121094 82.519531 L 39.472656 82.515625 C 39.207031 82.675781 38.976562 83.023438 38.773438 83.558594 C 38.582031 84.015625 38.527344 83.839844 38.613281 83.03125 C 38.617188 81.953125 38.617188 81.414062 38.617188 81.414062 C 38.960938 81.511719 39.132812 81.5625 39.132812 81.5625 C 39.613281 81.484375 39.898438 81.152344 39.988281 80.5625 C 40.324219 75.515625 40.492188 72.996094 40.492188 72.996094 C 40.566406 72.386719 40.410156 72.027344 40.019531 71.921875 C 39.636719 71.773438 39.449219 71.695312 39.449219 71.695312 C 39.90625 71.128906 41 70.6875 42.730469 70.371094 Z M 39.789062 85.644531 C 39.761719 85.976562 39.734375 86.3125 39.707031 86.648438 C 38.914062 86.566406 38.503906 86.238281 38.46875 85.667969 C 38.878906 85.945312 39.101562 86.03125 39.136719 85.9375 Z M 39.789062 85.644531 " fill-opacity="1" fill-rule="evenodd"/></g><path fill="#4d4d4d" d="M 130.480469 115.226562 C 131.402344 118.050781 132.863281 118.464844 134.339844 117.042969 C 132.867188 119.121094 131.292969 118.527344 130.480469 115.226562 Z M 76.695312 70.652344 C 76.128906 79.703125 75.847656 84.226562 75.847656 84.226562 C 68.789062 85.273438 52.960938 85.910156 41.460938 86.460938 C 41.589844 83.855469 42.21875 79.246094 43.355469 72.628906 C 42.167969 77.117188 41.324219 82.003906 40.824219 87.292969 C 57.148438 86.78125 69.09375 86.125 76.664062 85.328125 C 77.171875 75.632812 77.421875 70.789062 77.421875 70.789062 C 77.660156 68.90625 76.109375 69.164062 74.773438 69.101562 C 76.121094 69.4375 76.757812 69.957031 76.695312 70.65625 Z M 39.375 85.316406 C 39.117188 85.441406 38.984375 85.5 38.984375 85.5 C 38.984375 85.5 38.800781 85.382812 38.4375 85.148438 C 39.128906 84.550781 39.460938 84.386719 39.4375 84.664062 C 39.394531 85.101562 39.375 85.316406 39.375 85.316406 Z M 38.371094 77.597656 C 38.402344 81.882812 38.570312 81.886719 38.871094 77.601562 C 38.871094 77.601562 39.0625 77.433594 39.441406 77.097656 C 39.574219 77.035156 39.652344 76.792969 39.671875 76.371094 C 39.671875 76.371094 39.734375 75.21875 39.859375 72.921875 C 39.847656 72.761719 39.546875 72.574219 38.949219 72.359375 C 38.820312 75.289062 38.757812 76.75 38.757812 76.75 C 39.054688 76.964844 38.945312 77.042969 38.425781 76.992188 C 38.261719 76.980469 38.175781 77.097656 38.164062 77.34375 C 38.175781 77.523438 38.242188 77.609375 38.371094 77.601562 Z M 86.515625 79.5625 C 86.015625 79.898438 86.113281 80.066406 86.609375 80.171875 C 86.882812 80.199219 87.011719 80.316406 87.003906 80.511719 C 87.003906 80.511719 87.003906 80.96875 87.007812 81.882812 C 87.042969 82.335938 86.832031 82.574219 86.375 82.597656 C 86.105469 82.660156 86.011719 82.816406 86.09375 83.074219 C 86.105469 83.074219 86.71875 83.082031 87.9375 83.101562 C 88.253906 83.082031 88.460938 82.777344 88.558594 82.191406 C 88.558594 82.191406 88.574219 78.054688 88.609375 69.777344 C 88.585938 69.476562 88.519531 69.28125 88.410156 69.191406 C 87.878906 69.023438 87.039062 69.035156 85.890625 69.222656 C 86.320312 69.320312 86.539062 69.445312 86.554688 69.605469 C 86.507812 71.40625 86.484375 72.304688 86.484375 72.304688 C 86.820312 72.347656 86.957031 72.441406 86.902344 72.582031 C 86.871094 73.816406 86.855469 74.433594 86.855469 74.433594 C 86.761719 74.785156 86.597656 74.972656 86.359375 75 C 86.480469 75.234375 86.542969 75.351562 86.542969 75.351562 C 86.5625 78.117188 86.515625 79.5625 86.515625 79.5625 Z M 81.476562 68.644531 C 81.890625 68.609375 81.953125 68.667969 81.664062 68.824219 C 81.484375 68.863281 81.316406 69 81.152344 69.234375 C 81.152344 69.234375 81.046875 69.617188 80.835938 70.382812 C 80.726562 70.488281 80.46875 70.488281 80.066406 70.382812 C 80.257812 69.324219 80.726562 68.746094 81.476562 68.648438 Z M 85.582031 69.964844 C 85.582031 69.375 85.113281 68.894531 84.550781 68.761719 C 84.878906 68.917969 85.0625 69.246094 85.105469 69.738281 C 84.917969 78.488281 84.824219 82.863281 84.824219 82.863281 C 84.8125 83.164062 84.546875 83.414062 84.035156 83.613281 C 81.808594 83.96875 80.691406 84.144531 80.691406 84.144531 C 80.691406 83.671875 80.691406 83.433594 80.691406 83.433594 C 80.453125 83.339844 80.113281 83.308594 79.675781 83.328125 C 79.941406 83.488281 80.070312 83.632812 80.066406 83.765625 C 80.0625 84.558594 80.054688 84.960938 80.054688 84.960938 C 80.402344 85.039062 80.589844 84.941406 80.621094 84.664062 C 82.980469 84.226562 84.160156 84.003906 84.160156 84.003906 C 84.910156 83.808594 85.304688 83.398438 85.347656 82.78125 C 85.363281 82.21875 85.367188 81.9375 85.367188 81.9375 C 85.800781 81.953125 86.023438 81.882812 86.027344 81.722656 C 86.007812 80.988281 86 80.621094 86 80.621094 C 85.601562 80.597656 85.402344 80.589844 85.402344 80.589844 C 85.480469 76.566406 85.519531 74.554688 85.519531 74.554688 C 86.003906 74.625 86.289062 74.511719 86.375 74.210938 C 86.394531 73.515625 86.402344 73.167969 86.402344 73.167969 C 85.800781 73.152344 85.496094 73.144531 85.496094 73.144531 C 85.550781 71.023438 85.578125 69.964844 85.578125 69.964844 Z M 137.625 104.105469 C 137.832031 104.40625 137.9375 104.558594 137.9375 104.558594 C 141.503906 104.625 143.285156 104.660156 143.285156 104.660156 C 143.472656 104.625 143.566406 104.515625 143.5625 104.339844 C 143.589844 103.285156 143.601562 102.757812 143.601562 102.757812 C 142.886719 102.726562 142.527344 102.710938 142.527344 102.710938 C 142.519531 103.570312 142.515625 104.003906 142.515625 104.003906 C 142.457031 104.148438 142.371094 104.214844 142.257812 104.207031 C 139.167969 104.140625 137.625 104.105469 137.625 104.105469 Z M 135.257812 104.4375 C 135.921875 106.039062 136.214844 108.761719 136.265625 111.921875 C 136.191406 107.390625 135.164062 104.902344 133.25 104.960938 C 130.875 105.027344 130.546875 109.9375 130.40625 111.574219 C 130.324219 112 129.816406 112.179688 128.894531 112.113281 C 129.242188 111.882812 129.441406 111.605469 129.492188 111.28125 C 129.605469 109.734375 129.746094 106.316406 130.496094 104.25 C 130.976562 102.925781 131.554688 102.332031 133.03125 102.554688 C 134.003906 102.699219 134.792969 103.320312 135.257812 104.4375 Z M 100.148438 117.253906 C 100.105469 117.507812 99.960938 117.65625 99.714844 117.707031 C 99.714844 117.707031 99.289062 117.695312 98.445312 117.671875 C 98.445312 117.671875 98.5 117.546875 98.609375 117.292969 C 98.609375 117.292969 98.835938 117.277344 99.28125 117.25 C 99.441406 117.246094 99.566406 117.101562 99.660156 116.816406 C 99.660156 116.816406 99.765625 113.246094 99.972656 106.105469 C 100.253906 106.109375 100.394531 106.113281 100.394531 106.113281 C 100.230469 113.539062 100.148438 117.253906 100.148438 117.253906 Z M 88.632812 104.964844 C 94.234375 104.808594 97.542969 107.410156 98.554688 112.777344 C 97.992188 106.890625 94.808594 104.019531 89 104.164062 C 88.757812 104.695312 88.632812 104.964844 88.632812 104.964844 Z M 56.28125 115.695312 C 57.320312 117.21875 59.226562 117.882812 62 117.695312 C 58.792969 118.507812 56.59375 117.832031 55.398438 115.671875 C 55.984375 115.6875 56.28125 115.695312 56.28125 115.695312 Z M 56.28125 115.695312 " fill-opacity="1" fill-rule="evenodd"/><g clip-path="url(#7868f31317)"><g clip-path="url(#1c6426bae2)"><path fill="url(#683052dd78)" d="M 38.761719 65.101562 L 38.761719 114.519531 L 148.246094 114.519531 L 148.246094 65.101562 Z M 38.761719 65.101562 " fill-rule="nonzero"/></g></g><g clip-path="url(#7620cfc13e)"><g clip-path="url(#b0aecc2234)"><path fill="url(#04a0fb8bb6)" d="M 85.773438 97.484375 L 85.773438 114.523438 L 96.164062 114.523438 L 96.164062 97.484375 Z M 85.773438 97.484375 " fill-rule="nonzero"/></g></g><g clip-path="url(#cff947cc5e)"><g clip-path="url(#910d56f74d)"><path fill="url(#f549299694)" d="M 39.3125 90.941406 L 39.3125 100.597656 L 40.957031 100.597656 L 40.957031 90.941406 Z M 39.3125 90.941406 " fill-rule="nonzero"/></g></g><path fill="#efa500" d="M 40.003906 99.195312 C 40.003906 99.195312 39.933594 99.078125 39.792969 98.839844 C 40.488281 99.199219 40.75 99.105469 40.003906 99.195312 Z M 39.652344 94.589844 C 39.652344 94.589844 39.621094 94.636719 39.558594 94.308594 C 40.078125 94.566406 40.140625 94.582031 39.652344 94.589844 Z M 39.730469 97.03125 C 39.730469 97.03125 39.664062 97.050781 39.601562 96.722656 C 40.273438 97.0625 40.445312 96.972656 39.730469 97.03125 Z M 39.730469 97.03125 " fill-opacity="1" fill-rule="evenodd"/><path fill="#c98a02" d="M 41.847656 101.292969 C 42.265625 101.304688 42.503906 101.3125 42.503906 101.3125 C 41.851562 98.152344 41.277344 93.976562 40.789062 88.792969 C 40.824219 88.679688 40.714844 88.476562 40.464844 88.1875 C 40.808594 93.632812 41.265625 97.988281 41.847656 101.292969 Z M 129.351562 103.621094 C 129.527344 102.960938 129.90625 102.433594 130.0625 102.226562 L 126.671875 102.082031 L 126.628906 103.511719 Z M 125.25 103.46875 L 125.28125 102.023438 L 96.578125 100.820312 C 97.65625 101.855469 98.324219 103.25 98.589844 104.996094 C 100.214844 103.160156 100.6875 102.875 102.007812 102.90625 Z M 103.886719 95.054688 C 103.949219 95.503906 103.980469 95.730469 103.980469 95.730469 C 103.980469 95.730469 106.304688 95.878906 110.960938 96.171875 C 110.847656 95.757812 110.792969 95.546875 110.792969 95.546875 C 106.1875 95.21875 103.886719 95.054688 103.886719 95.054688 Z M 42.710938 95.535156 C 43.03125 96.257812 43.285156 96.628906 43.773438 96.65625 C 49.78125 96.59375 52.78125 96.5625 52.78125 96.5625 C 52.855469 96.042969 52.972656 95.585938 53.132812 95.191406 C 46.183594 95.421875 42.710938 95.535156 42.710938 95.535156 Z M 68.199219 101.367188 C 60.894531 102.238281 53.222656 102.40625 45.058594 101.828125 C 44.609375 101.777344 44.25 101.339844 44.148438 100.820312 C 51.78125 101.292969 60.269531 101.09375 69.617188 100.226562 C 69.289062 100.898438 68.867188 101.269531 68.199219 101.367188 Z M 44.503906 99.144531 C 50.515625 99.195312 53.335938 99.21875 53.335938 99.21875 C 53.082031 98.96875 52.867188 98.648438 52.691406 98.253906 C 52.691406 98.253906 49.585938 98.25 43.382812 98.238281 C 43.65625 98.890625 44.085938 99.15625 44.507812 99.148438 Z M 69.003906 98.605469 C 61.667969 98.96875 58 99.148438 58 99.148438 C 58.296875 98.808594 58.539062 98.394531 58.722656 97.910156 C 66.558594 97.550781 70.476562 97.371094 70.476562 97.371094 C 70.140625 98.082031 69.648438 98.492188 69.003906 98.605469 Z M 68.976562 95.820312 C 61.980469 96.042969 58.484375 96.15625 58.484375 96.15625 C 58.527344 95.839844 58.453125 95.421875 58.261719 94.910156 C 66.578125 94.722656 70.738281 94.628906 70.738281 94.628906 C 70.371094 95.488281 69.851562 95.792969 68.976562 95.820312 Z M 82.171875 106.066406 C 81.382812 104.414062 80.984375 103.585938 80.984375 103.585938 C 83.449219 103.625 84.679688 103.640625 84.679688 103.640625 C 83.15625 105.519531 82.324219 106.328125 82.171875 106.066406 Z M 80.972656 111.445312 C 80.980469 109.5 81.078125 108.3125 81.078125 108.3125 L 84.019531 108.371094 C 82.339844 110.449219 81.496094 111.488281 81.496094 111.488281 C 81.28125 111.796875 80.972656 111.9375 80.972656 111.445312 Z M 39.269531 112.632812 C 39.257812 112.484375 39.242188 112.320312 39.222656 112.136719 L 44.34375 112.167969 C 44.84375 110.03125 45.386719 107.71875 45.929688 105.851562 C 45.992188 105.632812 46.078125 105.503906 46.230469 105.152344 C 45.4375 109.082031 44.929688 111.496094 44.785156 112.171875 L 67.480469 112.316406 L 65.699219 104.902344 C 66.039062 105.492188 66.261719 105.953125 66.375 106.289062 L 67.980469 112.320312 L 74.492188 112.363281 C 75.910156 112.371094 77.40625 112.550781 78.980469 112.902344 Z M 91.113281 95.148438 C 82.996094 94.910156 79.097656 94.796875 79.097656 94.796875 C 79.105469 95.261719 79.109375 95.492188 79.109375 95.492188 C 86.054688 95.683594 89.53125 95.773438 89.53125 95.773438 C 89.898438 95.5 90.359375 95.226562 91.113281 95.148438 Z M 72.527344 100.351562 C 71.894531 100.414062 71.582031 100.445312 71.582031 100.445312 C 71.582031 100.445312 72.1875 97.394531 73.773438 89.394531 C 73.875 88.871094 74.046875 88.0625 74.617188 87.855469 C 74.167969 90.277344 73.804688 92.308594 73.519531 93.980469 C 73.324219 94.09375 73.195312 94.230469 73.140625 94.390625 L 73.453125 94.355469 C 73.339844 95.035156 73.234375 95.65625 73.144531 96.214844 C 72.875 96.339844 72.707031 96.5 72.636719 96.695312 L 73.078125 96.644531 C 72.984375 97.230469 72.902344 97.742188 72.839844 98.183594 C 72.589844 98.304688 72.433594 98.460938 72.367188 98.640625 L 72.773438 98.59375 C 72.597656 99.800781 72.53125 100.355469 72.53125 100.355469 Z M 72.527344 100.351562 " fill-opacity="1" fill-rule="evenodd"/><path fill="#ffea9e" d="M 100.070312 93.441406 L 93.828125 93.339844 C 93.804688 93.101562 93.734375 92.691406 93.648438 92.476562 C 93.625 92.421875 93.503906 88.570312 93.484375 88.511719 C 93.601562 88.515625 93.863281 92.4375 93.976562 92.441406 C 95.679688 92.503906 97.28125 92.59375 98.78125 92.710938 C 99.417969 92.851562 99.847656 93.09375 100.070312 93.441406 Z M 106.183594 113.039062 C 105.429688 113.433594 105.054688 113.628906 105.054688 113.628906 C 119.925781 112.933594 127.359375 112.582031 127.359375 112.582031 C 127.351562 109.011719 127.347656 107.222656 127.347656 107.222656 C 126.964844 108.484375 126.78125 110.078125 126.800781 111.992188 C 113.058594 112.691406 106.183594 113.039062 106.183594 113.039062 Z M 106.28125 97.242188 C 125.230469 98.65625 134.71875 99.507812 134.71875 99.507812 C 134.71875 99.507812 134.660156 99.816406 134.542969 100.429688 C 134.542969 100.429688 137.628906 100.585938 143.804688 100.902344 C 143.582031 100.9375 144.332031 100.609375 146.0625 99.917969 C 146.0625 99.917969 132.417969 98.84375 105.121094 96.699219 C 105.421875 97.019531 105.9375 97.230469 106.28125 97.242188 Z M 78.324219 101.308594 C 74.378906 101.730469 72.679688 101.953125 72.679688 101.953125 C 72.679688 103.035156 71.84375 103.339844 70.769531 103.414062 C 70.769531 103.414062 66.511719 103.9375 58.652344 104.796875 C 56.972656 105.019531 55.480469 105.011719 53.628906 104.894531 C 53.628906 104.894531 50.019531 104.527344 42.746094 103.90625 C 42.5625 103.839844 42.21875 103.804688 42.011719 103.21875 C 42.011719 103.21875 41.804688 103.203125 40.664062 103.109375 C 40.664062 103.109375 40.671875 102.714844 40.6875 101.921875 C 40.304688 101.890625 40.125 101.886719 40.144531 101.910156 C 40.121094 102.792969 40.109375 103.234375 40.109375 103.234375 C 39.597656 103.503906 39.277344 103.941406 39.144531 104.550781 C 39.285156 104.460938 39.421875 104.417969 39.554688 104.414062 C 49.03125 104.953125 53.773438 105.222656 53.773438 105.222656 C 55.824219 105.390625 57.59375 105.382812 59.082031 105.207031 C 72.359375 103.847656 79 103.171875 79 103.171875 C 78.550781 102.523438 78.328125 102.203125 78.328125 102.203125 C 78.324219 101.289062 78.324219 101.316406 78.324219 101.316406 Z M 39.664062 110.949219 C 39.6875 111.023438 39.746094 111.074219 39.839844 111.101562 C 42.988281 111.332031 43.625 111.46875 43.867188 111.675781 C 41.058594 111.691406 39.1875 111.65625 39.1875 111.65625 C 39.105469 109.941406 39.066406 109.085938 39.066406 109.085938 C 39.359375 109.679688 39.65625 110 39.945312 110.050781 C 39.703125 110.175781 39.601562 110.28125 39.648438 110.371094 C 39.65625 110.757812 39.664062 110.949219 39.664062 110.949219 Z M 44.011719 70.164062 C 44.46875 68.953125 45.09375 68.292969 45.878906 68.1875 C 59.058594 66.308594 69.441406 65.292969 77.023438 65.144531 C 78.847656 65.105469 80.753906 65.207031 82.601562 65.402344 C 80.75 65.511719 79.585938 66.210938 79.113281 67.503906 C 78.839844 66.804688 78.296875 66.441406 77.488281 66.421875 C 67.1875 66.714844 56.632812 67.613281 45.824219 69.113281 C 45 69.207031 44.53125 69.625 44.015625 70.167969 Z M 89.511719 69.789062 C 92.761719 70.128906 95.652344 70.453125 98.183594 70.761719 C 97.671875 70.324219 94.707031 69.695312 89.285156 68.875 C 89.464844 69.105469 89.539062 69.414062 89.511719 69.789062 Z M 104.070312 71.796875 C 103.785156 71.589844 103.644531 71.488281 103.644531 71.488281 C 103.644531 71.488281 102.925781 71.402344 101.496094 71.238281 C 101.496094 71.238281 102.445312 77.5625 103.90625 89.242188 C 104.011719 90.09375 104.109375 90.703125 104.015625 91.398438 C 104.015625 91.398438 102.933594 84.089844 100.777344 69.46875 C 100.75 69.25 100.667969 69.007812 100.464844 68.863281 C 102.160156 69.253906 103.007812 69.449219 103.007812 69.449219 C 103.40625 69.648438 103.632812 69.917969 103.679688 70.257812 C 103.941406 71.28125 104.070312 71.796875 104.070312 71.796875 Z M 90.882812 72.261719 C 91.113281 75.300781 91.25 78.578125 91.292969 82.097656 C 91.230469 83.3125 90.671875 84.132812 89.613281 84.558594 C 85.507812 85.574219 82.402344 86.125 80.296875 86.207031 C 85.101562 85.144531 88.171875 84.441406 89.511719 84.09375 C 90.269531 83.746094 90.695312 83.101562 90.792969 82.160156 C 90.734375 77.691406 90.636719 74.480469 90.496094 72.527344 C 90.460938 71.972656 90.195312 71.316406 89.679688 71.035156 C 90.417969 71.449219 90.820312 71.855469 90.882812 72.261719 Z M 97.367188 73.441406 C 97.898438 74.382812 98.261719 77.476562 98.453125 82.726562 C 98.464844 83.660156 98.007812 84.179688 97.085938 84.292969 C 97.074219 84.292969 96.003906 84.234375 93.878906 84.113281 C 93.625 84.066406 93.371094 83.871094 93.117188 83.535156 C 93.320312 83.652344 93.578125 83.734375 93.886719 83.773438 C 95.976562 83.886719 97.019531 83.941406 97.019531 83.941406 C 97.742188 83.792969 98.097656 83.371094 98.09375 82.679688 C 98.050781 79.039062 97.808594 75.957031 97.367188 73.441406 Z M 84.546875 101.984375 C 85.488281 99.328125 86.703125 97.46875 88.191406 96.410156 C 86.992188 97.621094 85.902344 99.664062 84.917969 102.535156 C 81.671875 102.476562 80.050781 102.445312 80.050781 102.445312 C 80.414062 102.167969 80.699219 102.007812 80.910156 101.96875 C 83.335938 101.980469 84.546875 101.984375 84.546875 101.984375 Z M 90.835938 90.15625 C 90.796875 89.84375 90.976562 89.667969 91.378906 89.632812 C 90.367188 89.53125 89.800781 89.6875 89.679688 90.109375 C 90.449219 90.140625 90.835938 90.15625 90.835938 90.15625 Z M 77.957031 86.632812 C 77.320312 87.140625 76.222656 87.421875 75.09375 87.507812 C 69.492188 87.945312 63.496094 88.316406 56.691406 88.65625 C 56.644531 88.957031 56.507812 89.167969 56.289062 89.300781 C 56.289062 89.300781 56.3125 89.152344 56.359375 88.859375 C 55.910156 87.730469 54.082031 88.835938 55.902344 89.726562 C 55.183594 89.90625 54.613281 89.609375 54.195312 88.832031 C 49.035156 88.964844 44.871094 89.015625 41.703125 88.992188 C 41.484375 89 41.324219 88.835938 41.214844 88.496094 C 54.128906 88.175781 66.375 87.550781 77.957031 86.632812 Z M 92.609375 94.464844 L 92.375 93.3125 L 79.875 93.109375 C 80.421875 92.710938 81.300781 92.472656 82.511719 92.386719 C 86.113281 92.308594 89.339844 92.308594 92.347656 92.390625 C 92.628906 93.289062 92.527344 93.597656 92.609375 94.464844 Z M 92.609375 94.464844 " fill-opacity="1" fill-rule="evenodd"/><path fill="#db9600" d="M 78.425781 99.769531 C 74.90625 100.117188 73.144531 100.289062 73.144531 100.289062 C 73.144531 100.289062 73.675781 96.910156 74.730469 90.152344 C 74.074219 95.714844 73.746094 98.5 73.746094 98.5 C 76.90625 98.246094 78.484375 98.121094 78.484375 98.121094 C 78.445312 99.21875 78.425781 99.769531 78.425781 99.769531 Z M 85.339844 107.105469 C 85.332031 106.488281 85.402344 105.496094 85.554688 104.125 C 84.207031 105.648438 83.53125 106.410156 83.53125 106.410156 C 84.738281 106.875 85.339844 107.105469 85.339844 107.105469 Z M 84.8125 113.128906 C 84.863281 111.960938 84.921875 110.617188 84.984375 109.105469 C 83.449219 111.019531 82.679688 111.972656 82.679688 111.972656 C 84.101562 112.742188 84.8125 113.128906 84.8125 113.128906 Z M 84.8125 113.128906 " fill-opacity="1" fill-rule="evenodd"/><path fill="#b3b3b3" d="M 134.160156 104.230469 C 133.789062 103.480469 133.183594 103.070312 132.34375 103.003906 C 133.628906 102.777344 134.59375 103.644531 135.238281 105.605469 C 134.816406 104.980469 134.277344 104.625 133.613281 104.542969 C 133.976562 104.332031 134.160156 104.226562 134.160156 104.226562 Z M 134.160156 104.230469 " fill-opacity="1" fill-rule="evenodd"/><path fill="#ffffff" d="M 87.933594 117.054688 C 87.902344 116.855469 88.207031 116.609375 88.261719 116.578125 C 88.464844 116.46875 88.597656 116.628906 88.777344 116.785156 C 88.910156 116.898438 89.078125 117.03125 89.234375 117.125 C 89.351562 117.195312 89.550781 117.253906 89.609375 117.550781 C 89.660156 117.808594 89.476562 118 89.300781 118.046875 C 88.898438 118.148438 88.535156 117.746094 88.277344 117.503906 C 88.214844 117.449219 87.953125 117.171875 87.933594 117.054688 Z M 132.734375 107.367188 C 133.699219 107.394531 134.433594 109.304688 134.371094 111.636719 C 134.3125 113.972656 133.480469 115.839844 132.515625 115.816406 C 131.550781 115.789062 130.816406 113.878906 130.875 111.546875 C 130.9375 109.214844 131.765625 107.34375 132.734375 107.367188 Z M 133.539062 113.671875 C 133.425781 114.382812 132.875 115.476562 132.265625 115.1875 C 130.847656 114.515625 130.9375 108.140625 132.707031 108.28125 C 133.128906 108.339844 133.609375 108.933594 133.8125 110.21875 C 133.320312 109.070312 132.214844 108.273438 131.894531 110.035156 C 132.355469 110.222656 132.601562 110.742188 132.621094 111.59375 C 132.628906 112.363281 132.382812 112.9375 131.882812 113.3125 C 131.96875 114.941406 132.96875 114.796875 133.539062 113.671875 Z M 93.429688 117.097656 C 93.316406 117.464844 92.488281 118.042969 92.15625 118.066406 C 91.964844 118.082031 91.800781 117.816406 91.875 117.617188 C 91.929688 117.457031 92.15625 117.371094 92.292969 117.289062 C 92.472656 117.179688 92.5625 117.085938 92.707031 116.957031 C 92.78125 116.894531 92.835938 116.851562 92.902344 116.777344 C 92.976562 116.695312 92.988281 116.648438 93.140625 116.644531 C 93.359375 116.640625 93.488281 116.898438 93.429688 117.097656 Z M 92.140625 118.351562 C 91.945312 118.539062 90.988281 118.667969 90.65625 118.667969 C 90.128906 118.667969 89.589844 118.535156 89.171875 118.308594 C 89.53125 118.269531 89.664062 118.226562 89.75 117.859375 C 89.835938 117.496094 89.695312 117.292969 89.566406 117.082031 C 90.050781 117.195312 90.183594 117.382812 90.964844 117.339844 C 91.210938 117.324219 91.449219 117.28125 91.671875 117.222656 C 91.984375 117.140625 92.179688 117.023438 92.296875 116.992188 L 92.21875 117.074219 C 91.894531 117.332031 91.78125 117.273438 91.714844 117.605469 C 91.628906 118.046875 91.863281 118.222656 92.140625 118.351562 Z M 93.636719 117.285156 C 93.71875 116.9375 93.59375 116.398438 93.128906 116.460938 L 93.675781 115.792969 C 93.875 115.515625 94.097656 115.097656 94.160156 115.015625 C 94.164062 115.011719 94.167969 115.003906 94.171875 115 C 94.152344 115.316406 94.148438 115.546875 94.476562 115.402344 C 94.625 115.339844 94.742188 115.269531 94.84375 115.144531 L 94.945312 115.023438 C 94.828125 115.59375 94.363281 116.363281 94.039062 116.800781 C 93.957031 116.914062 93.726562 117.226562 93.636719 117.28125 Z M 87.15625 114.632812 C 87.195312 114.621094 87.230469 114.605469 87.261719 114.59375 C 87.433594 114.507812 87.472656 114.453125 87.5625 114.28125 C 87.621094 114.425781 87.679688 114.832031 87.910156 115.390625 C 88.023438 115.671875 88.332031 116.175781 88.496094 116.292969 L 88.457031 116.3125 C 88.453125 116.3125 88.441406 116.320312 88.4375 116.320312 C 88.359375 116.347656 88.304688 116.328125 88.195312 116.398438 C 87.96875 116.535156 87.660156 116.847656 87.816406 117.148438 C 87.945312 117.398438 88.164062 117.652344 88.351562 117.832031 L 88.558594 118.066406 C 88.332031 117.96875 88.085938 117.714844 87.917969 117.519531 C 87.640625 117.199219 87.765625 117.320312 87.585938 117.078125 C 87.4375 116.878906 87.304688 116.808594 87.058594 116.40625 C 86.882812 116.113281 86.683594 115.683594 86.535156 115.210938 C 86.4375 115.261719 86.335938 115.308594 86.226562 115.34375 C 86.375 115.847656 86.589844 116.34375 86.871094 116.820312 C 87.179688 117.332031 87.652344 117.839844 88.105469 118.191406 C 88.933594 118.832031 89.949219 119.179688 91.023438 119.105469 C 93.59375 118.921875 95.707031 116.386719 95.585938 113.207031 C 95.480469 110.304688 93.390625 107.734375 90.554688 107.910156 C 89.371094 107.980469 88.339844 108.53125 87.5625 109.363281 L 87.40625 112.613281 C 87.417969 112.726562 87.40625 112.855469 87.398438 112.980469 C 87.378906 113.253906 87.378906 113.527344 87.378906 113.796875 C 87.375 114.003906 87.378906 114.183594 87.324219 114.304688 L 87.320312 114.308594 C 87.273438 114.425781 87.21875 114.535156 87.152344 114.632812 Z M 94.644531 112.503906 C 95.085938 112.328125 94.996094 113.128906 94.984375 113.476562 C 94.976562 113.699219 94.960938 113.929688 94.929688 114.144531 C 94.902344 114.316406 94.890625 114.605469 94.757812 114.664062 C 94.269531 114.886719 94.390625 113.953125 94.402344 113.683594 C 94.410156 113.542969 94.429688 112.765625 94.460938 112.660156 C 94.496094 112.546875 94.550781 112.539062 94.640625 112.503906 Z M 90.808594 113.382812 C 90.867188 113.390625 90.839844 113.386719 90.894531 113.402344 C 90.984375 113.429688 91.257812 113.308594 91.328125 113.355469 C 91.851562 113.316406 91.695312 114.085938 92.320312 113.621094 C 92.222656 115.097656 90.421875 115.292969 90.191406 113.75 C 90.058594 112.847656 90.578125 111.769531 91.738281 112.1875 C 91.144531 112.097656 90.691406 112.6875 90.808594 113.382812 Z M 93.632812 113.855469 C 93.660156 114.085938 93.515625 114.0625 93.347656 114.0625 C 93.441406 114.296875 93.535156 114.351562 93.53125 114.703125 C 93.359375 114.683594 93.179688 114.640625 93.003906 114.675781 C 92.832031 114.710938 92.753906 114.875 92.847656 115.054688 C 93.015625 115.140625 93.179688 115.140625 93.308594 115.046875 C 93.179688 115.472656 92.859375 115.867188 92.464844 115.953125 C 92.402344 115.808594 92.363281 115.683594 92.242188 115.621094 C 92.089844 115.535156 91.925781 115.582031 91.839844 115.722656 C 91.863281 115.9375 92.0625 115.957031 92.171875 116.101562 C 91.882812 116.425781 91.363281 116.488281 90.824219 116.453125 C 89.421875 116.359375 88.441406 114.992188 88.515625 113.328125 C 88.59375 113.277344 89.015625 112.878906 89.277344 113.082031 C 89.207031 113.140625 88.832031 113.425781 89.066406 113.550781 C 89.21875 113.628906 89.449219 113.644531 89.605469 113.460938 C 89.609375 113.457031 89.617188 113.453125 89.617188 113.449219 L 89.65625 113.402344 C 89.730469 114.140625 89.882812 114.234375 90.023438 114.660156 C 89.667969 114.644531 89.257812 114.839844 89.4375 115.179688 C 89.523438 115.332031 89.660156 115.386719 89.832031 115.277344 C 90.070312 115.128906 89.992188 115.046875 90.128906 114.929688 C 90.292969 114.929688 90.234375 115.007812 90.332031 115.050781 C 90.375 115.070312 90.554688 115.097656 90.609375 115.105469 C 90.566406 115.183594 90.523438 115.179688 90.472656 115.285156 C 90.425781 115.371094 90.417969 115.476562 90.425781 115.585938 C 90.5 115.683594 90.585938 115.683594 90.621094 115.8125 L 90.492188 115.875 C 90.488281 115.878906 90.480469 115.878906 90.472656 115.882812 C 90.417969 116.394531 90.933594 116.113281 91.054688 115.96875 C 91.257812 115.722656 90.984375 115.542969 90.878906 115.4375 C 90.808594 115.367188 90.824219 115.320312 90.851562 115.222656 C 91.105469 115.183594 91.613281 115.390625 92.128906 114.824219 C 92.46875 114.449219 92.480469 114 92.578125 113.925781 C 92.667969 113.855469 92.847656 113.878906 92.902344 113.921875 C 92.9375 113.710938 92.886719 113.023438 93.5 113.089844 C 93.398438 113.191406 93.089844 113.3125 93.144531 113.535156 C 93.195312 113.730469 93.5 113.757812 93.632812 113.855469 Z M 93.363281 112.105469 C 93.550781 112.5625 92.820312 112.734375 92.675781 112.421875 C 92.554688 112.15625 92.871094 111.421875 93.179688 111.75 C 93.160156 111.972656 93.003906 111.980469 92.914062 112.089844 C 93.03125 112.546875 93.15625 112.050781 93.363281 112.105469 Z M 89.488281 111.972656 C 89.589844 112.082031 89.730469 112.027344 89.878906 112.074219 C 90.367188 112.222656 89.585938 112.722656 89.324219 112.464844 C 89.183594 112.328125 89 111.96875 89.074219 111.769531 C 89.195312 111.445312 89.613281 111.488281 89.71875 111.585938 C 89.628906 111.710938 89.464844 111.78125 89.488281 111.976562 Z M 90.984375 111.308594 C 90.96875 111.667969 90.199219 111.632812 90.292969 111.007812 C 90.324219 110.796875 90.445312 110.589844 90.648438 110.65625 C 91.003906 110.773438 90.628906 110.976562 90.648438 111.089844 C 90.722656 111.242188 90.84375 111.238281 90.984375 111.308594 Z M 92.070312 111.441406 C 92.101562 111.421875 92.34375 111.160156 92.394531 111.363281 C 92.488281 111.726562 91.390625 112.109375 91.601562 111.050781 C 91.640625 110.863281 91.878906 110.660156 92.039062 110.726562 C 92.292969 110.824219 91.722656 111.28125 92.070312 111.441406 Z M 93 116.160156 C 92.957031 116.253906 92.921875 116.257812 92.847656 116.328125 C 92.785156 116.390625 92.757812 116.414062 92.691406 116.472656 C 92.363281 116.746094 91.921875 116.96875 91.5 117.070312 C 90.21875 117.375 89.027344 116.777344 88.304688 115.675781 C 87.582031 114.570312 87.445312 112.933594 88.042969 111.6875 C 88.351562 111.039062 88.660156 110.675781 89.109375 110.308594 C 89.976562 109.601562 91.238281 109.460938 92.246094 110.011719 L 92.59375 110.257812 C 92.3125 110.148438 92.140625 110.035156 91.800781 109.953125 C 91.492188 109.878906 91.152344 109.863281 90.835938 109.90625 C 90.257812 109.980469 89.714844 110.246094 89.363281 110.554688 C 89.011719 110.855469 88.644531 111.269531 88.414062 111.8125 C 87.152344 114.777344 89.695312 117.773438 92.339844 116.574219 C 92.679688 116.421875 92.804688 116.273438 93 116.164062 Z M 89.320312 108.816406 C 89.539062 108.746094 89.847656 108.824219 89.910156 109.007812 C 90.011719 109.285156 89.929688 109.453125 89.703125 109.578125 C 88.691406 110.136719 88.601562 110.585938 88.214844 110.066406 C 88.058594 109.859375 88.226562 109.589844 88.34375 109.464844 C 88.519531 109.273438 88.992188 108.921875 89.320312 108.816406 Z M 92.25 108.945312 C 92.421875 108.886719 92.660156 109.078125 92.777344 109.160156 C 92.964844 109.292969 93.546875 109.699219 93.648438 109.882812 C 93.761719 110.09375 93.703125 110.363281 93.515625 110.414062 C 93.316406 110.46875 93.101562 110.242188 92.996094 110.160156 C 92.808594 110.007812 92.121094 109.558594 92.082031 109.488281 C 91.960938 109.285156 92.074219 109.003906 92.246094 108.945312 Z M 92.25 108.945312 " fill-opacity="1" fill-rule="evenodd"/><path fill="#333333" d="M 54.570312 82.410156 C 54.976562 77.5625 55.179688 75.136719 55.179688 75.136719 C 55.183594 74.566406 54.847656 74.144531 54.171875 73.878906 C 54.171875 73.878906 51.613281 73.644531 46.496094 73.179688 C 45.882812 73.234375 45.488281 73.582031 45.3125 74.226562 C 44.5625 77.613281 44.117188 81.007812 43.972656 84.414062 C 50.085938 84.238281 53.140625 84.148438 53.140625 84.148438 C 54.09375 83.878906 54.566406 83.300781 54.570312 82.414062 Z M 54.570312 82.410156 " fill-opacity="1" fill-rule="evenodd"/><path fill="#999999" d="M 88.179688 79.703125 C 87.96875 80.917969 87.863281 81.527344 87.863281 81.527344 C 87.738281 82.195312 87.5625 82.457031 87.332031 82.304688 C 87.332031 82.304688 87.339844 81.585938 87.351562 80.144531 C 87.371094 80.042969 87.273438 79.957031 87.050781 79.886719 C 86.773438 79.824219 86.960938 79.675781 87.609375 79.4375 C 88.042969 79.40625 88.230469 79.496094 88.179688 79.703125 Z M 88 77.769531 C 87.414062 77.777344 87.152344 77.035156 87.210938 75.550781 C 87.210938 75.550781 87.230469 73.550781 87.269531 69.546875 C 87.269531 69.488281 87.214844 69.414062 87.101562 69.320312 C 87.785156 69.289062 88.144531 69.347656 88.183594 69.496094 C 88.058594 75.011719 88 77.769531 88 77.769531 Z M 88 77.769531 " fill-opacity="1" fill-rule="evenodd"/><g clip-path="url(#029d8e4726)"><g clip-path="url(#faa70358ee)"><path fill="url(#454df46b86)" d="M 60.957031 70.183594 L 60.957031 84.132812 L 74.78125 84.132812 L 74.78125 70.183594 Z M 60.957031 70.183594 " fill-rule="nonzero"/></g></g><g clip-path="url(#e78197c72f)"><path fill="#ffffff" d="M 86.414062 64.347656 C 86.414062 64.347656 84.785156 63.792969 83.359375 63.304688 C 83.363281 63.40625 83.328125 63.105469 83.25 62.394531 C 83.25 62.394531 83.191406 62.675781 83.074219 63.238281 C 83.074219 63.238281 80.890625 63.46875 76.523438 63.921875 C 71.496094 64.050781 63.914062 64.738281 53.773438 65.988281 L 53.773438 65.65625 C 73.308594 63.203125 83.308594 61.953125 83.308594 61.953125 C 85.582031 62.859375 86.449219 63.207031 86.449219 63.207031 C 86.421875 64.097656 86.414062 64.347656 86.414062 64.347656 Z M 86.414062 64.347656 " fill-opacity="1" fill-rule="evenodd"/></g><path fill="#ffffff" d="M 72.238281 103.492188 C 72.789062 103.199219 74.589844 102.785156 77.648438 102.253906 C 77.921875 102.71875 78.0625 102.949219 78.0625 102.949219 C 74.179688 103.3125 72.238281 103.492188 72.238281 103.492188 Z M 72.238281 103.492188 " fill-opacity="1" fill-rule="evenodd"/><path fill="#cccccc" d="M 76.476562 107.898438 C 76.503906 106.820312 76.519531 106.277344 76.519531 106.277344 C 76.4375 105.828125 76.105469 105.589844 75.519531 105.558594 C 75.519531 105.558594 73.175781 105.683594 68.484375 105.9375 C 68.054688 106.039062 67.925781 106.332031 68.097656 106.8125 C 71.640625 106.667969 73.421875 106.597656 73.433594 106.605469 C 70 107.042969 68.28125 107.261719 68.28125 107.261719 C 68.390625 107.933594 68.445312 108.269531 68.445312 108.269531 C 68.503906 108.628906 68.714844 108.789062 69.070312 108.746094 L 74.558594 108.820312 L 74.539062 106.324219 C 74.804688 106.609375 74.957031 106.835938 74.984375 107.011719 L 75.019531 108.824219 L 75.1875 108.828125 C 75.988281 108.777344 76.417969 108.46875 76.480469 107.898438 Z M 43.699219 109.097656 C 43.960938 107.882812 44.09375 107.273438 44.09375 107.273438 C 44.09375 107.273438 43.019531 107.085938 40.875 106.710938 C 40.875 106.710938 41.9375 106.730469 44.066406 106.773438 C 44.140625 106.542969 43.964844 106.363281 43.542969 106.238281 C 43.542969 106.238281 42.566406 106.207031 40.621094 106.144531 C 40.285156 106.109375 40.109375 106.253906 40.089844 106.574219 C 40.078125 108.011719 40.074219 108.730469 40.074219 108.730469 C 40.105469 109.125 40.300781 109.316406 40.652344 109.304688 C 40.734375 108.203125 40.773438 107.648438 40.773438 107.648438 C 41.027344 108.800781 41.152344 109.375 41.152344 109.375 C 42.359375 109.421875 42.960938 109.441406 42.960938 109.441406 C 43.375 109.480469 43.625 109.363281 43.703125 109.09375 Z M 43.699219 109.097656 " fill-opacity="1" fill-rule="evenodd"/><path fill="#ffffff" d="M 73.910156 108.21875 C 72.976562 108.179688 72.507812 108.160156 72.507812 108.160156 C 72.402344 107.371094 71.0625 107.648438 70.988281 108.21875 C 70.988281 108.21875 70.488281 108.03125 69.480469 107.660156 C 69.480469 107.660156 70.960938 107.441406 73.925781 107 C 73.914062 107.8125 73.910156 108.214844 73.910156 108.214844 Z M 43.328125 107.851562 C 43.1875 108.402344 43.113281 108.675781 43.113281 108.675781 C 43.113281 108.675781 42.742188 108.511719 41.992188 108.183594 C 41.992188 108.183594 41.816406 108.300781 41.464844 108.535156 C 41.410156 108.582031 41.371094 108.25 41.351562 107.550781 C 42.65625 107.757812 43.3125 107.859375 43.328125 107.851562 Z M 75.980469 106.476562 C 75.953125 106.992188 75.941406 107.246094 75.941406 107.246094 C 75.941406 107.246094 75.644531 106.820312 75.046875 105.972656 C 75.675781 105.960938 75.984375 106.132812 75.980469 106.476562 Z M 75.980469 106.476562 " fill-opacity="1" fill-rule="evenodd"/><path fill="#333333" d="M 96.414062 82.5625 C 94.316406 82.457031 93.265625 82.40625 93.265625 82.40625 C 93.296875 82.71875 93.527344 82.898438 93.953125 82.945312 C 93.953125 82.945312 94.871094 82.980469 96.710938 83.054688 C 97.003906 83.011719 97.148438 82.808594 97.140625 82.4375 C 97.113281 79.910156 96.878906 76.980469 96.441406 73.644531 C 96.351562 73.164062 95.996094 72.835938 95.371094 72.65625 C 95.828125 72.921875 96.066406 73.289062 96.09375 73.753906 C 96.523438 77.601562 96.703125 80.414062 96.644531 82.195312 C 96.628906 82.410156 96.554688 82.535156 96.414062 82.5625 Z M 96.414062 82.5625 " fill-opacity="1" fill-rule="evenodd"/><path fill="#666666" d="M 132.796875 109.390625 C 133.886719 111.007812 133.847656 112.425781 132.683594 113.648438 C 133.285156 112.386719 133.320312 110.964844 132.796875 109.390625 Z M 132.796875 109.390625 " fill-opacity="1" fill-rule="evenodd"/><path fill="#333333" d="M 64.28125 109.507812 C 65.203125 110.53125 65.664062 111.046875 65.664062 111.046875 C 65.664062 111.046875 65.335938 110.265625 64.683594 108.707031 C 64.578125 108.519531 64.273438 108.410156 63.769531 108.375 C 63.769531 108.375 62.535156 108.335938 60.058594 108.261719 C 59.855469 108.253906 59.664062 109.058594 59.445312 109.050781 C 59.445312 109.050781 59.425781 107.992188 59.425781 107.492188 C 59.425781 107.492188 56.777344 107.433594 51.484375 107.324219 C 51.484375 107.324219 51.503906 108.597656 51.476562 109.097656 C 51.476562 109.097656 51.246094 108.074219 50.851562 108.070312 C 50.277344 108.066406 49.296875 108.054688 47.90625 108.042969 C 47.597656 107.996094 47.390625 108.0625 47.285156 108.238281 C 47.285156 108.238281 46.921875 109.199219 46.191406 111.125 C 46.953125 109.984375 47.332031 109.417969 47.332031 109.417969 C 58.628906 109.480469 64.28125 109.507812 64.28125 109.507812 Z M 64.28125 109.507812 " fill-opacity="1" fill-rule="evenodd"/><path fill="#333333" d="M 55.765625 94.53125 C 55.355469 94.519531 54.976562 94.734375 54.6875 95.097656 C 54.902344 94.898438 55.164062 94.785156 55.4375 94.792969 C 56.160156 94.8125 56.71875 95.644531 56.695312 96.652344 C 56.667969 97.660156 56.0625 98.460938 55.34375 98.441406 C 54.9375 98.433594 54.578125 98.160156 54.351562 97.742188 C 54.601562 98.390625 55.085938 98.832031 55.652344 98.847656 C 56.503906 98.871094 57.21875 97.921875 57.25 96.730469 C 57.28125 95.539062 56.617188 94.554688 55.765625 94.53125 Z M 55.765625 94.53125 " fill-opacity="1" fill-rule="evenodd"/><path fill="#ffea9e" d="M 77.671875 110.203125 C 79.222656 110.839844 79.5 111.066406 78.511719 110.886719 C 78.511719 110.886719 75.273438 110.519531 68.792969 109.792969 C 73.617188 109.9375 76.027344 110.011719 76.027344 110.011719 C 76.933594 109.921875 77.460938 109.378906 77.601562 108.386719 C 77.648438 109.597656 77.671875 110.207031 77.671875 110.207031 Z M 77.671875 110.203125 " fill-opacity="1" fill-rule="evenodd"/></svg>