<svg xmlns="http://www.w3.org/2000/svg" xmlns:xlink="http://www.w3.org/1999/xlink" width="250" zoomAndPan="magnify" viewBox="0 0 187.5 187.499992" height="250" preserveAspectRatio="xMidYMid meet" version="1.0"><defs><clipPath id="ac62bcccc9"><path d="M 123 69.640625 L 163 69.640625 L 163 107 L 123 107 Z M 123 69.640625 " clip-rule="nonzero"/></clipPath><clipPath id="1ffefafb7d"><path d="M 45 100 L 163.683594 100 L 163.683594 111 L 45 111 Z M 45 100 " clip-rule="nonzero"/></clipPath><clipPath id="a521f978f8"><path d="M 135.773438 101 L 152.214844 101 L 152.214844 117.511719 L 135.773438 117.511719 Z M 135.773438 101 " clip-rule="nonzero"/></clipPath><clipPath id="bd0f95fb45"><path d="M 61.65625 101 L 78.097656 101 L 78.097656 117.511719 L 61.65625 117.511719 Z M 61.65625 101 " clip-rule="nonzero"/></clipPath><clipPath id="0a83f23741"><path d="M 23.058594 106 L 25 106 L 25 111 L 23.058594 111 Z M 23.058594 106 " clip-rule="nonzero"/></clipPath><clipPath id="722ef4b9d1"><path d="M 111 69.640625 L 118 69.640625 L 118 98 L 111 98 Z M 111 69.640625 " clip-rule="nonzero"/></clipPath></defs><path fill="#151516" d="M 145.105469 96.351562 C 139.011719 96.351562 134.074219 101.316406 134.074219 107.441406 L 156.140625 107.441406 C 156.140625 101.316406 151.203125 96.351562 145.105469 96.351562 " fill-opacity="1" fill-rule="nonzero"/><g clip-path="url(#ac62bcccc9)"><path fill="#1c4f5a" d="M 161.792969 88.917969 C 161.308594 87.027344 153.75 85.921875 153.75 85.921875 L 144.6875 72.960938 C 144.6875 72.960938 142.683594 70.394531 141.882812 69.992188 C 141.179688 69.640625 138.742188 69.664062 138.742188 69.664062 L 123.351562 69.664062 L 123.351562 106.898438 L 134.003906 106.898438 C 134.496094 101.679688 139.019531 97.59375 144.523438 97.59375 C 150.03125 97.59375 154.550781 101.679688 155.046875 106.898438 L 161.875 106.898438 C 161.875 106.898438 162.28125 90.8125 161.792969 88.917969 " fill-opacity="1" fill-rule="nonzero"/></g><path fill="#353a47" d="M 134.394531 107.144531 C 134.851562 101.910156 139.226562 97.800781 144.554688 97.800781 C 149.886719 97.800781 154.261719 101.910156 154.71875 107.144531 L 156.488281 107.144531 C 156.027344 100.925781 150.863281 96.027344 144.554688 96.027344 C 138.25 96.027344 133.082031 100.925781 132.621094 107.144531 L 134.394531 107.144531 " fill-opacity="1" fill-rule="nonzero"/><g clip-path="url(#1ffefafb7d)"><path fill="#151516" d="M 159.683594 100.519531 L 163.609375 100.519531 L 163.609375 109.039062 L 161.566406 110.140625 L 47.777344 110.140625 L 45.449219 106.199219 L 45.449219 100.519531 L 47.777344 100.519531 L 47.777344 106.832031 L 159.683594 106.832031 L 159.683594 100.519531 " fill-opacity="1" fill-rule="nonzero"/></g><path fill="#96aad8" d="M 148.542969 85.777344 L 128.503906 85.777344 C 128.128906 85.777344 127.824219 85.472656 127.824219 85.09375 L 127.824219 74.820312 C 127.824219 74.441406 128.128906 74.136719 128.503906 74.136719 L 141.179688 74.136719 C 141.179688 74.136719 148.917969 85.777344 148.542969 85.777344 " fill-opacity="1" fill-rule="nonzero"/><path fill="#f8a11f" d="M 162.035156 94.992188 C 162.035156 95.425781 161.683594 95.78125 161.25 95.78125 L 160.46875 95.78125 C 160.035156 95.78125 159.683594 95.425781 159.683594 94.992188 L 159.683594 91.285156 C 159.683594 90.847656 160.035156 90.496094 160.46875 90.496094 L 161.25 90.496094 C 161.683594 90.496094 162.035156 90.847656 162.035156 91.285156 L 162.035156 94.992188 " fill-opacity="1" fill-rule="nonzero"/><path fill="#405979" d="M 126.695312 73.277344 L 126.695312 98.761719 L 126.691406 98.785156 C 126.6875 98.816406 126.574219 99.585938 127.257812 100.40625 C 127.867188 101.140625 128.328125 101.089844 128.375 101.078125 L 128.417969 101.066406 L 128.449219 101.070312 L 132.511719 101.070312 C 132.929688 100.980469 133.636719 100.734375 133.839844 100.429688 C 134.59375 99.304688 135.597656 98.269531 136.738281 97.433594 C 138.675781 96.023438 140.976562 95.1875 143.578125 94.945312 C 144.089844 94.902344 144.621094 94.875 145.164062 94.875 C 146.8125 94.875 148.105469 95.089844 148.496094 95.160156 C 149.304688 94.609375 150.140625 93.851562 150.140625 93.546875 L 150.140625 85.867188 L 141.796875 73.277344 Z M 128.316406 101.65625 C 128.03125 101.65625 127.457031 101.542969 126.820312 100.773438 C 126.03125 99.824219 126.101562 98.894531 126.125 98.71875 L 126.125 72.703125 L 142.101562 72.703125 L 150.710938 85.691406 L 150.710938 93.546875 C 150.710938 94.328125 149.179688 95.394531 148.714844 95.703125 L 148.613281 95.769531 L 148.5 95.746094 C 148.484375 95.742188 147.042969 95.449219 145.164062 95.449219 C 144.636719 95.449219 144.121094 95.472656 143.632812 95.519531 C 138.242188 96.011719 135.480469 99.007812 134.3125 100.75 C 133.910156 101.355469 132.730469 101.609375 132.597656 101.636719 L 132.570312 101.644531 L 128.480469 101.644531 C 128.441406 101.652344 128.386719 101.65625 128.316406 101.65625 " fill-opacity="1" fill-rule="nonzero"/><g clip-path="url(#a521f978f8)"><path fill="#212839" d="M 152.210938 109.269531 C 152.210938 113.824219 148.539062 117.511719 144.007812 117.511719 C 139.476562 117.511719 135.804688 113.824219 135.804688 109.269531 C 135.804688 104.71875 139.476562 101.027344 144.007812 101.027344 C 148.539062 101.027344 152.210938 104.71875 152.210938 109.269531 " fill-opacity="1" fill-rule="nonzero"/></g><path fill="#151516" d="M 151.25 109.269531 C 151.25 113.289062 148.007812 116.546875 144.007812 116.546875 C 140.007812 116.546875 136.765625 113.289062 136.765625 109.269531 C 136.765625 105.25 140.007812 101.992188 144.007812 101.992188 C 148.007812 101.992188 151.25 105.25 151.25 109.269531 " fill-opacity="1" fill-rule="nonzero"/><path fill="#686c83" d="M 148.476562 109.148438 C 148.476562 111.628906 146.476562 113.640625 144.007812 113.640625 C 141.539062 113.640625 139.539062 111.628906 139.539062 109.148438 C 139.539062 106.667969 141.539062 104.660156 144.007812 104.660156 C 146.476562 104.660156 148.476562 106.667969 148.476562 109.148438 " fill-opacity="1" fill-rule="nonzero"/><path fill="#484e62" d="M 148.070312 109.148438 C 148.070312 111.402344 146.253906 113.230469 144.007812 113.230469 C 141.765625 113.230469 139.945312 111.402344 139.945312 109.148438 C 139.945312 106.894531 141.765625 105.066406 144.007812 105.066406 C 146.253906 105.066406 148.070312 106.894531 148.070312 109.148438 " fill-opacity="1" fill-rule="nonzero"/><path fill="#ee252c" d="M 144.007812 107.789062 C 143.273438 107.789062 142.667969 108.386719 142.65625 109.125 C 142.648438 109.488281 142.78125 109.832031 143.035156 110.09375 C 143.285156 110.355469 143.621094 110.503906 143.984375 110.511719 L 144.007812 110.511719 C 144.742188 110.511719 145.347656 109.910156 145.363281 109.175781 C 145.375 108.425781 144.78125 107.804688 144.035156 107.789062 Z M 144.007812 110.757812 L 143.980469 110.757812 C 143.550781 110.746094 143.152344 110.574219 142.859375 110.265625 C 142.5625 109.957031 142.402344 109.550781 142.410156 109.121094 C 142.425781 108.25 143.144531 107.542969 144.007812 107.542969 L 144.039062 107.542969 C 144.917969 107.558594 145.621094 108.292969 145.605469 109.179688 C 145.589844 110.046875 144.875 110.757812 144.007812 110.757812 " fill-opacity="1" fill-rule="nonzero"/><path fill="#151516" d="M 147.492188 109.167969 C 147.492188 111.109375 145.921875 112.683594 143.992188 112.683594 C 142.058594 112.683594 140.492188 111.109375 140.492188 109.167969 C 140.492188 107.226562 142.058594 105.648438 143.992188 105.648438 C 145.921875 105.648438 147.492188 107.226562 147.492188 109.167969 " fill-opacity="1" fill-rule="nonzero"/><path fill="#a5a9c3" d="M 145.484375 110.925781 C 145.496094 110.28125 146.027344 109.769531 146.667969 109.78125 C 146.988281 109.785156 147.277344 109.921875 147.484375 110.136719 C 147.566406 109.84375 147.613281 109.535156 147.621094 109.214844 C 147.625 108.820312 147.570312 108.441406 147.464844 108.085938 C 147.25 108.300781 146.953125 108.429688 146.625 108.425781 C 145.984375 108.414062 145.472656 107.882812 145.484375 107.238281 C 145.492188 106.785156 145.753906 106.398438 146.132812 106.210938 C 145.839844 106 145.515625 105.828125 145.167969 105.710938 C 145.128906 106.328125 144.609375 106.808594 143.988281 106.796875 C 143.378906 106.785156 142.890625 106.308594 142.851562 105.710938 C 142.480469 105.835938 142.136719 106.019531 141.832031 106.253906 C 142.179688 106.460938 142.410156 106.84375 142.402344 107.28125 C 142.390625 107.925781 141.863281 108.4375 141.21875 108.425781 C 140.960938 108.421875 140.71875 108.328125 140.527344 108.179688 C 140.449219 108.46875 140.402344 108.769531 140.398438 109.082031 C 140.390625 109.414062 140.429688 109.734375 140.507812 110.042969 C 140.714844 109.875 140.976562 109.773438 141.261719 109.78125 C 141.902344 109.792969 142.414062 110.324219 142.402344 110.96875 C 142.394531 111.414062 142.136719 111.800781 141.761719 111.988281 C 142.089844 112.25 142.460938 112.453125 142.863281 112.589844 C 142.953125 112.023438 143.445312 111.597656 144.03125 111.609375 C 144.601562 111.621094 145.066406 112.042969 145.15625 112.589844 C 145.539062 112.460938 145.894531 112.269531 146.207031 112.027344 C 145.777344 111.851562 145.476562 111.421875 145.484375 110.925781 " fill-opacity="1" fill-rule="nonzero"/><path fill="#151516" d="M 144.808594 109.164062 C 144.804688 109.609375 144.4375 109.964844 143.996094 109.957031 C 143.550781 109.949219 143.199219 109.578125 143.207031 109.136719 C 143.214844 108.691406 143.582031 108.335938 144.023438 108.34375 C 144.464844 108.351562 144.820312 108.71875 144.808594 109.164062 " fill-opacity="1" fill-rule="nonzero"/><path fill="#96aad8" d="M 148.523438 85.777344 L 128.484375 85.777344 C 128.300781 85.777344 128.132812 85.703125 128.007812 85.582031 C 127.882812 85.460938 141.746094 75.011719 141.746094 75.011719 C 141.746094 75.011719 148.835938 85.777344 148.523438 85.777344 " fill-opacity="1" fill-rule="nonzero"/><path fill="#586a80" d="M 130.257812 76.277344 L 142.597656 76.277344 C 141.761719 75.007812 141.183594 74.136719 141.183594 74.136719 L 128.503906 74.136719 C 128.128906 74.136719 127.824219 74.441406 127.824219 74.820312 L 127.824219 85.09375 C 127.824219 85.472656 128.128906 85.777344 128.503906 85.777344 L 130.257812 85.777344 L 130.257812 76.277344 " fill-opacity="1" fill-rule="nonzero"/><g clip-path="url(#bd0f95fb45)"><path fill="#212839" d="M 78.09375 109.269531 C 78.09375 113.824219 74.421875 117.511719 69.890625 117.511719 C 65.359375 117.511719 61.6875 113.824219 61.6875 109.269531 C 61.6875 104.71875 65.359375 101.027344 69.890625 101.027344 C 74.421875 101.027344 78.09375 104.71875 78.09375 109.269531 " fill-opacity="1" fill-rule="nonzero"/></g><path fill="#151516" d="M 77.132812 109.269531 C 77.132812 113.289062 73.890625 116.546875 69.890625 116.546875 C 65.890625 116.546875 62.648438 113.289062 62.648438 109.269531 C 62.648438 105.25 65.890625 101.992188 69.890625 101.992188 C 73.890625 101.992188 77.132812 105.25 77.132812 109.269531 " fill-opacity="1" fill-rule="nonzero"/><path fill="#686c83" d="M 74.359375 109.148438 C 74.359375 111.628906 72.359375 113.640625 69.890625 113.640625 C 67.421875 113.640625 65.421875 111.628906 65.421875 109.148438 C 65.421875 106.667969 67.421875 104.660156 69.890625 104.660156 C 72.359375 104.660156 74.359375 106.667969 74.359375 109.148438 " fill-opacity="1" fill-rule="nonzero"/><path fill="#484e62" d="M 73.953125 109.148438 C 73.953125 111.402344 72.132812 113.230469 69.890625 113.230469 C 67.648438 113.230469 65.828125 111.402344 65.828125 109.148438 C 65.828125 106.894531 67.648438 105.066406 69.890625 105.066406 C 72.132812 105.066406 73.953125 106.894531 73.953125 109.148438 " fill-opacity="1" fill-rule="nonzero"/><path fill="#ee252c" d="M 69.890625 107.789062 C 69.15625 107.789062 68.550781 108.386719 68.535156 109.125 C 68.53125 109.488281 68.664062 109.832031 68.914062 110.09375 C 69.167969 110.355469 69.503906 110.503906 69.867188 110.511719 L 69.890625 110.511719 C 70.625 110.511719 71.230469 109.910156 71.242188 109.175781 C 71.257812 108.425781 70.660156 107.804688 69.914062 107.789062 Z M 69.890625 110.757812 L 69.859375 110.757812 C 69.433594 110.746094 69.035156 110.574219 68.738281 110.265625 C 68.441406 109.957031 68.285156 109.550781 68.292969 109.121094 C 68.308594 108.25 69.023438 107.542969 69.890625 107.542969 L 69.917969 107.542969 C 70.800781 107.558594 71.503906 108.292969 71.488281 109.179688 C 71.472656 110.046875 70.753906 110.757812 69.890625 110.757812 " fill-opacity="1" fill-rule="nonzero"/><path fill="#151516" d="M 73.371094 109.167969 C 73.371094 111.109375 71.804688 112.683594 69.871094 112.683594 C 67.941406 112.683594 66.371094 111.109375 66.371094 109.167969 C 66.371094 107.226562 67.941406 105.648438 69.871094 105.648438 C 71.804688 105.648438 73.371094 107.226562 73.371094 109.167969 " fill-opacity="1" fill-rule="nonzero"/><path fill="#a5a9c3" d="M 71.367188 110.925781 C 71.378906 110.28125 71.90625 109.769531 72.546875 109.78125 C 72.871094 109.785156 73.160156 109.921875 73.363281 110.136719 C 73.449219 109.84375 73.496094 109.535156 73.5 109.214844 C 73.507812 108.820312 73.453125 108.441406 73.34375 108.085938 C 73.128906 108.300781 72.832031 108.429688 72.507812 108.425781 C 71.863281 108.414062 71.355469 107.882812 71.367188 107.238281 C 71.375 106.785156 71.636719 106.398438 72.015625 106.210938 C 71.722656 106 71.398438 105.828125 71.046875 105.710938 C 71.007812 106.328125 70.492188 106.808594 69.867188 106.796875 C 69.261719 106.785156 68.769531 106.308594 68.730469 105.710938 C 68.363281 105.835938 68.019531 106.019531 67.710938 106.253906 C 68.0625 106.460938 68.292969 106.84375 68.285156 107.28125 C 68.273438 107.925781 67.742188 108.4375 67.101562 108.425781 C 66.839844 108.421875 66.601562 108.328125 66.410156 108.179688 C 66.328125 108.464844 66.285156 108.769531 66.28125 109.082031 C 66.273438 109.414062 66.3125 109.734375 66.390625 110.042969 C 66.59375 109.875 66.859375 109.773438 67.144531 109.78125 C 67.785156 109.792969 68.296875 110.324219 68.285156 110.96875 C 68.277344 111.414062 68.015625 111.800781 67.644531 111.988281 C 67.96875 112.25 68.339844 112.453125 68.742188 112.589844 C 68.832031 112.023438 69.324219 111.597656 69.910156 111.609375 C 70.480469 111.621094 70.949219 112.042969 71.035156 112.589844 C 71.417969 112.460938 71.773438 112.269531 72.089844 112.027344 C 71.65625 111.851562 71.359375 111.421875 71.367188 110.925781 " fill-opacity="1" fill-rule="nonzero"/><path fill="#151516" d="M 70.691406 109.164062 C 70.683594 109.609375 70.316406 109.964844 69.875 109.957031 C 69.433594 109.949219 69.082031 109.578125 69.089844 109.136719 C 69.097656 108.691406 69.460938 108.335938 69.90625 108.34375 C 70.347656 108.351562 70.699219 108.71875 70.691406 109.164062 " fill-opacity="1" fill-rule="nonzero"/><path fill="#405979" d="M 128.503906 74.421875 C 128.285156 74.421875 128.109375 74.601562 128.109375 74.820312 L 128.109375 85.09375 C 128.109375 85.3125 128.285156 85.492188 128.503906 85.492188 L 148.128906 85.492188 C 147.332031 84.015625 143.53125 78.1875 141.027344 74.421875 Z M 148.542969 86.066406 L 128.503906 86.066406 C 127.972656 86.066406 127.539062 85.628906 127.539062 85.09375 L 127.539062 74.820312 C 127.539062 74.285156 127.972656 73.847656 128.503906 73.847656 L 141.332031 73.847656 L 141.417969 73.976562 C 141.4375 74.003906 143.324219 76.84375 145.167969 79.683594 C 146.25 81.351562 147.105469 82.695312 147.710938 83.675781 C 148.9375 85.660156 148.898438 85.730469 148.804688 85.90625 C 148.753906 86.003906 148.652344 86.066406 148.542969 86.066406 " fill-opacity="1" fill-rule="nonzero"/><path fill="#151516" d="M 121.410156 109.601562 L 30.355469 109.601562 L 30.355469 106.132812 L 46.859375 101.578125 L 121.410156 101.578125 L 121.410156 109.601562 " fill-opacity="1" fill-rule="nonzero"/><path fill="#353a47" d="M 107.066406 111.097656 L 82.308594 111.097656 L 82.308594 102.394531 L 107.066406 102.394531 L 107.066406 111.097656 " fill-opacity="1" fill-rule="nonzero"/><path fill="#f8a11f" d="M 47.886719 99.265625 L 109.773438 99.265625 L 109.773438 102.394531 L 47.886719 102.394531 L 47.886719 99.265625 " fill-opacity="1" fill-rule="nonzero"/><path fill="#f8a11f" d="M 25.421875 108.117188 L 24.691406 105.226562 L 47.898438 99.289062 L 48.628906 102.175781 L 25.421875 108.117188 " fill-opacity="1" fill-rule="nonzero"/><path fill="#f8a11f" d="M 42.394531 108.882812 L 30.355469 108.882812 L 30.355469 107.96875 L 42.394531 107.96875 L 42.394531 108.882812 " fill-opacity="1" fill-rule="nonzero"/><path fill="#f8a11f" d="M 109.234375 99.039062 L 109.234375 86.351562 L 108.554688 86.351562 L 107.609375 95.460938 L 106.121094 99.039062 L 109.234375 99.039062 " fill-opacity="1" fill-rule="nonzero"/><path fill="#f68a1b" d="M 109.28125 99.265625 L 100.351562 99.265625 L 100.351562 98.542969 L 109.28125 98.542969 L 109.28125 99.265625 " fill-opacity="1" fill-rule="nonzero"/><path fill="#f8a11f" d="M 36.917969 108.851562 L 35.765625 108.851562 L 35.765625 104.636719 L 36.917969 104.636719 L 36.917969 108.851562 " fill-opacity="1" fill-rule="nonzero"/><path fill="#f8a11f" d="M 40.394531 108.785156 L 39.332031 108.328125 L 41.867188 102.394531 L 42.925781 102.851562 L 40.394531 108.785156 " fill-opacity="1" fill-rule="nonzero"/><path fill="#f8a11f" d="M 30.636719 108.863281 L 24.488281 110.398438 L 24.261719 109.484375 L 30.410156 107.949219 L 30.636719 108.863281 " fill-opacity="1" fill-rule="nonzero"/><g clip-path="url(#0a83f23741)"><path fill="#f8a11f" d="M 24.875 110.355469 L 24.066406 110.554688 L 23.136719 106.792969 L 23.945312 106.589844 L 24.875 110.355469 " fill-opacity="1" fill-rule="nonzero"/></g><path fill="#f68a1b" d="M 118.703125 102.394531 L 110.855469 102.394531 L 110.855469 97.769531 L 118.703125 97.769531 L 118.703125 102.394531 " fill-opacity="1" fill-rule="nonzero"/><g clip-path="url(#722ef4b9d1)"><path fill="#e57e1e" d="M 117.714844 97.769531 L 111.898438 97.769531 L 113.582031 69.898438 L 115.714844 69.898438 L 117.714844 97.769531 " fill-opacity="1" fill-rule="nonzero"/></g><path fill="#627f8e" d="M 131.910156 89.773438 C 131.910156 89.992188 131.640625 90.167969 131.308594 90.167969 L 128.425781 90.167969 C 128.09375 90.167969 127.824219 89.992188 127.824219 89.773438 L 127.824219 89.707031 C 127.824219 89.492188 128.09375 89.3125 128.425781 89.3125 L 131.308594 89.3125 C 131.640625 89.3125 131.910156 89.492188 131.910156 89.707031 L 131.910156 89.773438 " fill-opacity="1" fill-rule="nonzero"/><path fill="#151516" d="M 148.382812 84.15625 C 148.382812 83.578125 148.734375 83.113281 149.167969 83.113281 L 150.265625 83.113281 C 150.699219 83.113281 151.050781 83.578125 151.050781 84.15625 L 151.050781 89.125 C 151.050781 89.699219 150.699219 90.167969 150.265625 90.167969 L 149.167969 90.167969 C 148.734375 90.167969 148.382812 89.699219 148.382812 89.125 L 148.382812 84.15625 " fill-opacity="1" fill-rule="nonzero"/><path fill="#27292b" d="M 86.695312 93.546875 L 85.335938 91.890625 C 85.335938 91.890625 86.167969 85.757812 92.277344 85.554688 C 98.316406 85.351562 99.796875 91.402344 99.796875 91.402344 L 98.085938 93.164062 L 86.695312 93.546875 " fill-opacity="1" fill-rule="nonzero"/><path fill="#19191a" d="M 98.601562 92.515625 C 98.710938 95.90625 96.070312 98.746094 92.695312 98.859375 C 89.320312 98.972656 86.496094 96.316406 86.382812 92.925781 C 86.269531 89.535156 88.914062 86.695312 92.289062 86.582031 C 95.660156 86.46875 98.488281 89.125 98.601562 92.515625 " fill-opacity="1" fill-rule="nonzero"/><path fill="#a0a5c8" d="M 97.472656 92.554688 C 97.566406 95.320312 95.410156 97.636719 92.65625 97.726562 C 89.90625 97.820312 87.601562 95.652344 87.507812 92.886719 C 87.417969 90.125 89.574219 87.804688 92.324219 87.714844 C 95.078125 87.621094 97.382812 89.789062 97.472656 92.554688 " fill-opacity="1" fill-rule="nonzero"/><path fill="#19191a" d="M 96.980469 92.570312 C 97.066406 95.0625 95.121094 97.152344 92.640625 97.234375 C 90.160156 97.316406 88.082031 95.363281 88 92.871094 C 87.917969 90.378906 89.859375 88.292969 92.339844 88.207031 C 94.820312 88.125 96.898438 90.078125 96.980469 92.570312 " fill-opacity="1" fill-rule="nonzero"/><path fill="#27292b" d="M 95.378906 92.625 C 95.429688 94.226562 94.183594 95.570312 92.585938 95.621094 C 90.992188 95.675781 89.65625 94.421875 89.605469 92.816406 C 89.550781 91.214844 90.800781 89.875 92.394531 89.820312 C 93.988281 89.765625 95.324219 91.023438 95.378906 92.625 " fill-opacity="1" fill-rule="nonzero"/><path fill="#66678a" d="M 94.914062 92.640625 C 94.957031 93.984375 93.910156 95.109375 92.570312 95.15625 C 91.234375 95.199219 90.113281 94.144531 90.070312 92.800781 C 90.023438 91.457031 91.074219 90.332031 92.410156 90.289062 C 93.746094 90.242188 94.867188 91.296875 94.914062 92.640625 " fill-opacity="1" fill-rule="nonzero"/><path fill="#a0a5c8" d="M 92.035156 93.855469 L 91.515625 97.285156 L 92.578125 97.375 L 92.632812 93.90625 L 92.035156 93.855469 " fill-opacity="1" fill-rule="nonzero"/><path fill="#a0a5c8" d="M 93.085938 93.808594 L 95.46875 96.320312 L 96.1875 95.53125 L 93.492188 93.367188 L 93.085938 93.808594 " fill-opacity="1" fill-rule="nonzero"/><path fill="#a0a5c8" d="M 91.667969 93.597656 L 88.933594 95.710938 L 88.339844 94.824219 L 91.335938 93.097656 L 91.667969 93.597656 " fill-opacity="1" fill-rule="nonzero"/><path fill="#a0a5c8" d="M 91.871094 91.722656 L 90.453125 88.558594 L 91.449219 88.1875 L 92.433594 91.511719 L 91.871094 91.722656 " fill-opacity="1" fill-rule="nonzero"/><path fill="#a0a5c8" d="M 92.816406 91.5625 L 94.367188 88.464844 L 95.285156 89.007812 L 93.328125 91.867188 L 92.816406 91.5625 " fill-opacity="1" fill-rule="nonzero"/><path fill="#a0a5c8" d="M 91.472656 92.148438 L 88.242188 90.925781 L 87.933594 91.949219 L 91.296875 92.726562 L 91.472656 92.148438 " fill-opacity="1" fill-rule="nonzero"/><path fill="#a0a5c8" d="M 93.597656 92.253906 L 96.996094 91.648438 L 97.109375 92.710938 L 93.660156 92.851562 L 93.597656 92.253906 " fill-opacity="1" fill-rule="nonzero"/><path fill="#dedfdd" d="M 92.492188 91.671875 C 92.480469 91.671875 92.46875 91.671875 92.457031 91.671875 C 91.882812 91.691406 91.429688 92.179688 91.449219 92.757812 C 91.46875 93.335938 91.945312 93.789062 92.527344 93.769531 C 92.804688 93.757812 93.0625 93.640625 93.253906 93.4375 C 93.441406 93.234375 93.542969 92.964844 93.535156 92.6875 C 93.515625 92.117188 93.058594 91.671875 92.492188 91.671875 Z M 92.488281 94.34375 C 91.613281 94.34375 90.90625 93.65625 90.878906 92.777344 C 90.847656 91.882812 91.546875 91.128906 92.4375 91.101562 C 93.335938 91.070312 94.074219 91.769531 94.101562 92.667969 C 94.117188 93.101562 93.964844 93.511719 93.667969 93.828125 C 93.375 94.144531 92.976562 94.328125 92.542969 94.34375 C 92.527344 94.34375 92.507812 94.34375 92.488281 94.34375 " fill-opacity="1" fill-rule="nonzero"/><path fill="#bbbdbb" d="M 93.035156 92.703125 C 93.042969 93.003906 92.808594 93.257812 92.507812 93.269531 C 92.207031 93.277344 91.957031 93.042969 91.945312 92.738281 C 91.9375 92.4375 92.171875 92.183594 92.472656 92.175781 C 92.773438 92.164062 93.023438 92.402344 93.035156 92.703125 " fill-opacity="1" fill-rule="nonzero"/><path fill="#040606" d="M 92.492188 92.296875 L 92.476562 92.296875 C 92.246094 92.304688 92.0625 92.5 92.070312 92.734375 C 92.078125 92.964844 92.261719 93.144531 92.492188 93.144531 L 92.503906 93.144531 C 92.738281 93.136719 92.921875 92.941406 92.914062 92.707031 C 92.90625 92.476562 92.71875 92.296875 92.492188 92.296875 Z M 92.492188 93.390625 C 92.128906 93.390625 91.835938 93.105469 91.824219 92.742188 C 91.8125 92.375 92.101562 92.0625 92.46875 92.050781 L 92.492188 92.050781 C 92.851562 92.050781 93.144531 92.335938 93.15625 92.699219 C 93.167969 93.066406 92.878906 93.378906 92.511719 93.390625 L 92.492188 93.390625 " fill-opacity="1" fill-rule="nonzero"/><path fill="#d12329" d="M 105.726562 87.632812 C 105.609375 87.347656 104.828125 86.789062 104.828125 86.789062 C 104.828125 86.789062 105.609375 84.039062 97.121094 81.800781 C 92.628906 80.613281 85.191406 80.644531 85.191406 80.644531 C 85.191406 80.644531 84.011719 79.648438 74.183594 75.183594 C 67.410156 72.109375 53.207031 73.847656 51.371094 73.910156 C 49.535156 73.972656 38.613281 75.503906 38.613281 75.503906 C 38.613281 75.503906 32.269531 82.421875 31.824219 83.601562 C 31.378906 84.78125 31.960938 87.679688 31.960938 87.679688 C 31.960938 87.679688 31.40625 88.472656 30.566406 89.375 C 29.726562 90.277344 30.652344 91.996094 30.652344 91.996094 C 30.652344 91.996094 30.527344 93.289062 31.949219 94.625 C 33.164062 95.765625 35.742188 95.796875 36.0625 95.796875 C 35.976562 95.398438 35.925781 94.988281 35.910156 94.566406 C 35.785156 90.800781 38.722656 87.644531 42.46875 87.519531 C 46.214844 87.394531 49.355469 90.34375 49.480469 94.109375 C 49.507812 94.957031 49.378906 95.769531 49.125 96.527344 L 86.066406 95.285156 L 86.148438 95.277344 C 85.851562 94.550781 85.675781 93.753906 85.648438 92.921875 C 85.523438 89.144531 88.46875 85.980469 92.226562 85.855469 C 95.984375 85.726562 99.132812 88.6875 99.257812 92.464844 C 99.277344 93.019531 99.226562 93.558594 99.121094 94.082031 L 99.269531 94.066406 C 99.269531 94.066406 105.933594 93.816406 105.90625 92.96875 C 105.898438 92.796875 105.308594 92.503906 105.308594 92.503906 C 105.308594 92.503906 105.574219 92.113281 105.601562 91.867188 C 105.679688 91.234375 106.140625 88.605469 105.726562 87.632812 " fill-opacity="1" fill-rule="nonzero"/><path fill="#a21b21" d="M 47.941406 88.742188 L 48.71875 88.136719 C 48.71875 88.136719 48.398438 86.542969 48.96875 86.355469 C 49.542969 86.164062 62.257812 85.910156 66.460938 85.769531 C 71.484375 85.597656 84.835938 86.292969 85.089844 86.625 C 85.34375 86.957031 85.3125 87.488281 85.3125 87.488281 L 86.582031 87.863281 C 86.582031 87.863281 85.4375 89.792969 85.292969 91.101562 C 85.152344 92.40625 85.046875 93.765625 85.046875 93.765625 L 50.257812 94.339844 C 50.257812 94.339844 49.902344 91.527344 49.332031 90.613281 C 48.757812 89.695312 47.941406 88.742188 47.941406 88.742188 " fill-opacity="1" fill-rule="nonzero"/><path fill="#e4f5d8" d="M 34.972656 82.292969 L 36.660156 85.140625 C 36.660156 85.140625 32.53125 85.429688 31.925781 85.152344 C 31.320312 84.878906 31.636719 83.734375 32.03125 83.085938 C 32.421875 82.4375 32.648438 82.371094 32.648438 82.371094 L 34.972656 82.292969 " fill-opacity="1" fill-rule="nonzero"/><path fill="#a21b21" d="M 48 84.46875 C 48 84.46875 48.144531 84.460938 48.417969 84.453125 C 48.695312 84.445312 49.09375 84.425781 49.605469 84.414062 C 50.117188 84.402344 50.738281 84.382812 51.449219 84.371094 C 52.164062 84.355469 52.964844 84.339844 53.839844 84.332031 C 54.28125 84.328125 54.734375 84.320312 55.207031 84.316406 C 55.679688 84.308594 56.167969 84.3125 56.671875 84.308594 C 57.675781 84.304688 58.734375 84.292969 59.828125 84.296875 C 60.921875 84.300781 62.054688 84.296875 63.203125 84.304688 C 63.488281 84.308594 63.777344 84.308594 64.066406 84.3125 C 64.355469 84.3125 64.644531 84.308594 64.933594 84.308594 C 65.511719 84.3125 66.09375 84.3125 66.675781 84.3125 C 66.964844 84.3125 67.257812 84.316406 67.546875 84.316406 L 67.988281 84.316406 L 68.421875 84.3125 C 69.003906 84.304688 69.585938 84.300781 70.160156 84.296875 C 70.445312 84.292969 70.734375 84.289062 71.019531 84.289062 C 71.304688 84.289062 71.585938 84.289062 71.867188 84.285156 C 72.433594 84.285156 72.988281 84.285156 73.535156 84.285156 C 74.632812 84.277344 75.691406 84.289062 76.695312 84.292969 C 77.195312 84.296875 77.683594 84.300781 78.15625 84.304688 C 78.628906 84.3125 79.085938 84.316406 79.523438 84.324219 C 80.398438 84.335938 81.203125 84.351562 81.914062 84.367188 C 82.628906 84.382812 83.25 84.402344 83.761719 84.417969 C 84.273438 84.433594 84.671875 84.449219 84.945312 84.460938 C 85.222656 84.472656 85.367188 84.476562 85.367188 84.476562 C 85.367188 84.476562 85.222656 84.488281 84.949219 84.507812 C 84.675781 84.523438 84.273438 84.554688 83.761719 84.582031 C 83.253906 84.609375 82.632812 84.648438 81.921875 84.683594 C 81.210938 84.71875 80.410156 84.761719 79.535156 84.792969 C 79.097656 84.8125 78.640625 84.832031 78.167969 84.851562 C 77.695312 84.871094 77.210938 84.886719 76.707031 84.90625 C 75.703125 84.941406 74.648438 84.980469 73.550781 85.003906 C 73.003906 85.019531 72.449219 85.035156 71.886719 85.050781 C 71.605469 85.058594 71.320312 85.066406 71.035156 85.070312 C 70.75 85.078125 70.464844 85.082031 70.175781 85.089844 C 69.601562 85.101562 69.023438 85.113281 68.441406 85.121094 L 68.003906 85.128906 C 67.933594 85.128906 67.855469 85.132812 67.789062 85.132812 L 67.570312 85.132812 C 67.277344 85.132812 66.984375 85.132812 66.691406 85.132812 C 66.105469 85.128906 65.519531 85.125 64.933594 85.121094 C 64.351562 85.121094 63.765625 85.113281 63.195312 85.097656 C 62.042969 85.078125 60.914062 85.042969 59.816406 85.015625 C 58.722656 84.992188 57.664062 84.953125 56.660156 84.917969 C 56.160156 84.898438 55.671875 84.882812 55.199219 84.863281 C 54.726562 84.839844 54.273438 84.820312 53.835938 84.800781 C 52.957031 84.765625 52.15625 84.722656 51.445312 84.683594 C 50.734375 84.648438 50.113281 84.609375 49.605469 84.578125 C 49.09375 84.546875 48.691406 84.515625 48.417969 84.5 C 48.144531 84.480469 48 84.46875 48 84.46875 " fill-opacity="1" fill-rule="nonzero"/><path fill="#651219" d="M 85.191406 80.644531 C 85.191406 80.644531 85.253906 80.695312 85.375 80.777344 C 85.492188 80.867188 85.675781 80.984375 85.90625 81.132812 C 86.140625 81.277344 86.429688 81.441406 86.769531 81.613281 C 87.109375 81.785156 87.503906 81.957031 87.945312 82.097656 C 88.386719 82.238281 88.882812 82.339844 89.402344 82.34375 C 89.53125 82.339844 89.671875 82.335938 89.808594 82.332031 C 89.945312 82.328125 90.085938 82.320312 90.230469 82.320312 C 90.375 82.320312 90.519531 82.320312 90.667969 82.320312 C 90.8125 82.324219 90.960938 82.328125 91.109375 82.332031 C 91.699219 82.359375 92.3125 82.394531 92.933594 82.457031 C 93.242188 82.484375 93.550781 82.527344 93.867188 82.5625 C 94.175781 82.605469 94.492188 82.644531 94.804688 82.691406 C 95.429688 82.785156 96.050781 82.902344 96.660156 83.027344 C 97.269531 83.152344 97.863281 83.296875 98.4375 83.457031 C 98.582031 83.496094 98.722656 83.539062 98.863281 83.582031 C 99 83.625 99.140625 83.664062 99.277344 83.710938 C 99.550781 83.804688 99.808594 83.894531 100.066406 83.984375 C 100.320312 84.074219 100.566406 84.164062 100.808594 84.246094 C 101.046875 84.332031 101.277344 84.417969 101.5 84.496094 C 101.945312 84.648438 102.355469 84.789062 102.714844 84.917969 C 103.078125 85.042969 103.394531 85.15625 103.652344 85.246094 C 104.171875 85.429688 104.46875 85.535156 104.46875 85.535156 C 104.46875 85.535156 104.394531 85.515625 104.25 85.480469 C 104.105469 85.445312 103.894531 85.394531 103.628906 85.324219 C 103.363281 85.253906 103.039062 85.175781 102.667969 85.070312 C 102.300781 84.96875 101.882812 84.851562 101.425781 84.722656 C 100.972656 84.589844 100.484375 84.441406 99.96875 84.28125 C 99.449219 84.117188 98.914062 83.957031 98.34375 83.808594 C 97.777344 83.664062 97.183594 83.539062 96.582031 83.414062 C 95.976562 83.296875 95.359375 83.1875 94.742188 83.097656 C 94.433594 83.042969 94.121094 83.003906 93.816406 82.960938 C 93.503906 82.921875 93.195312 82.878906 92.890625 82.847656 C 92.277344 82.777344 91.675781 82.722656 91.089844 82.6875 C 90.945312 82.675781 90.800781 82.667969 90.65625 82.660156 C 90.511719 82.65625 90.371094 82.652344 90.230469 82.644531 C 90.09375 82.636719 89.949219 82.640625 89.8125 82.640625 C 89.671875 82.636719 89.535156 82.636719 89.398438 82.636719 C 88.835938 82.613281 88.324219 82.472656 87.875 82.308594 C 87.421875 82.144531 87.035156 81.9375 86.699219 81.746094 C 86.363281 81.550781 86.085938 81.359375 85.863281 81.195312 C 85.640625 81.03125 85.472656 80.890625 85.359375 80.796875 C 85.25 80.699219 85.191406 80.644531 85.191406 80.644531 " fill-opacity="1" fill-rule="nonzero"/><path fill="#e4f5d8" d="M 104.878906 86.785156 C 104.878906 86.785156 101.839844 87.082031 101.207031 86.910156 C 100.574219 86.734375 98.339844 85.011719 98.425781 84.71875 C 98.515625 84.425781 98.976562 83.824219 100.144531 83.980469 C 101.308594 84.136719 103.753906 84.703125 104.167969 85.089844 C 104.839844 85.71875 104.878906 86.785156 104.878906 86.785156 " fill-opacity="1" fill-rule="nonzero"/><path fill="#2c242e" d="M 100.078125 86.21875 C 100.558594 86.5625 100.972656 86.894531 101.207031 86.957031 C 101.84375 87.128906 104.878906 86.835938 104.878906 86.835938 C 104.878906 86.835938 104.917969 86.507812 104.792969 86.109375 L 100.078125 86.21875 " fill-opacity="1" fill-rule="nonzero"/><path fill="#27292b" d="M 46.308594 83.796875 C 46.628906 84.097656 47.265625 84.289062 47.992188 84.265625 C 48.71875 84.238281 49.339844 84.007812 49.640625 83.683594 L 46.308594 83.796875 " fill-opacity="1" fill-rule="nonzero"/><path fill="#27292b" d="M 63.699219 83.679688 C 64.019531 83.980469 64.65625 84.171875 65.382812 84.148438 C 66.109375 84.121094 66.730469 83.886719 67.03125 83.566406 L 63.699219 83.679688 " fill-opacity="1" fill-rule="nonzero"/><path fill="#e04857" d="M 50.050781 83.453125 C 50.054688 83.570312 49.960938 83.671875 49.839844 83.675781 L 46.019531 83.804688 C 45.898438 83.808594 45.800781 83.714844 45.796875 83.59375 C 45.789062 83.472656 45.886719 83.371094 46.003906 83.367188 L 49.828125 83.238281 C 49.945312 83.234375 50.046875 83.332031 50.050781 83.453125 " fill-opacity="1" fill-rule="nonzero"/><path fill="#e04857" d="M 67.4375 83.347656 C 67.441406 83.46875 67.347656 83.570312 67.226562 83.574219 L 63.40625 83.703125 C 63.285156 83.707031 63.1875 83.613281 63.183594 83.492188 C 63.179688 83.371094 63.273438 83.269531 63.390625 83.265625 L 67.214844 83.136719 C 67.332031 83.132812 67.433594 83.230469 67.4375 83.347656 " fill-opacity="1" fill-rule="nonzero"/><path fill="#e04857" d="M 30.652344 91.996094 L 35.871094 91.824219 L 38.292969 87.777344 L 31.929688 87.507812 C 31.929688 87.507812 30.410156 89.542969 30.3125 89.785156 C 29.933594 90.757812 30.652344 91.996094 30.652344 91.996094 " fill-opacity="1" fill-rule="nonzero"/><path fill="#e04759" d="M 53.914062 92.238281 C 58.710938 91.761719 71.839844 91.976562 74.113281 91.996094 C 76.386719 92.015625 84.765625 92.5625 84.765625 92.5625 C 84.765625 92.5625 66.875 93.015625 65.625 92.960938 C 64.378906 92.90625 51.605469 93.070312 51.183594 92.960938 C 50.359375 92.746094 53.273438 92.300781 53.914062 92.238281 " fill-opacity="1" fill-rule="nonzero"/><path fill="#040606" d="M 101.78125 90.351562 C 101.78125 90.351562 101.542969 92.53125 102.632812 92.691406 C 103.726562 92.847656 105.660156 92.707031 105.660156 92.707031 L 105.441406 92.28125 C 105.441406 92.28125 104.71875 92.234375 104.507812 91.609375 C 104.292969 90.984375 104.414062 90.261719 104.414062 90.261719 L 101.78125 90.351562 " fill-opacity="1" fill-rule="nonzero"/><path fill="#651219" d="M 54.367188 94.394531 C 54.007812 94.394531 53.796875 94.394531 53.753906 94.386719 C 53.265625 94.3125 52.660156 93.789062 52.128906 93.285156 L 52.0625 93.222656 C 51.804688 92.980469 44.339844 82.917969 43.488281 81.773438 L 43.816406 81.527344 C 46.097656 84.601562 52.078125 92.644531 52.34375 92.925781 L 52.410156 92.988281 C 52.675781 93.242188 53.386719 93.917969 53.816406 93.980469 C 54.367188 94.039062 74.925781 93.71875 85.71875 93.539062 L 85.726562 93.949219 C 82.765625 93.996094 58.566406 94.394531 54.367188 94.394531 " fill-opacity="1" fill-rule="nonzero"/><path fill="#27292b" d="M 36.851562 95.21875 L 35.492188 93.5625 C 35.492188 93.5625 36.324219 87.429688 42.433594 87.226562 C 48.472656 87.023438 49.953125 93.078125 49.953125 93.078125 L 48.238281 94.835938 L 36.851562 95.21875 " fill-opacity="1" fill-rule="nonzero"/><path fill="#19191a" d="M 48.753906 94.1875 C 48.867188 97.578125 46.222656 100.417969 42.851562 100.53125 C 39.476562 100.644531 36.652344 97.988281 36.539062 94.597656 C 36.425781 91.207031 39.070312 88.367188 42.441406 88.253906 C 45.816406 88.140625 48.640625 90.800781 48.753906 94.1875 " fill-opacity="1" fill-rule="nonzero"/><path fill="#a0a5c8" d="M 47.628906 94.226562 C 47.71875 96.992188 45.566406 99.308594 42.8125 99.402344 C 40.0625 99.492188 37.753906 97.328125 37.664062 94.5625 C 37.570312 91.796875 39.726562 89.480469 42.480469 89.386719 C 45.230469 89.292969 47.535156 91.460938 47.628906 94.226562 " fill-opacity="1" fill-rule="nonzero"/><path fill="#19191a" d="M 47.136719 94.242188 C 47.21875 96.734375 45.277344 98.824219 42.796875 98.90625 C 40.316406 98.988281 38.238281 97.035156 38.15625 94.542969 C 38.074219 92.050781 40.015625 89.964844 42.496094 89.882812 C 44.976562 89.796875 47.054688 91.75 47.136719 94.242188 " fill-opacity="1" fill-rule="nonzero"/><path fill="#27292b" d="M 45.53125 94.296875 C 45.585938 95.898438 44.335938 97.242188 42.742188 97.292969 C 41.148438 97.347656 39.8125 96.09375 39.757812 94.492188 C 39.707031 92.886719 40.957031 91.546875 42.550781 91.492188 C 44.144531 91.441406 45.480469 92.695312 45.53125 94.296875 " fill-opacity="1" fill-rule="nonzero"/><path fill="#66678a" d="M 45.066406 94.3125 C 45.113281 95.65625 44.0625 96.78125 42.726562 96.828125 C 41.390625 96.871094 40.269531 95.820312 40.226562 94.476562 C 40.179688 93.132812 41.226562 92.003906 42.566406 91.960938 C 43.902344 91.914062 45.023438 92.96875 45.066406 94.3125 " fill-opacity="1" fill-rule="nonzero"/><path fill="#a0a5c8" d="M 42.191406 95.527344 L 41.671875 98.957031 L 42.730469 99.046875 L 42.789062 95.578125 L 42.191406 95.527344 " fill-opacity="1" fill-rule="nonzero"/><path fill="#a0a5c8" d="M 43.242188 95.480469 L 45.625 97.992188 L 46.34375 97.203125 L 43.648438 95.039062 L 43.242188 95.480469 " fill-opacity="1" fill-rule="nonzero"/><path fill="#a0a5c8" d="M 41.824219 95.269531 L 39.085938 97.382812 L 38.496094 96.496094 L 41.492188 94.769531 L 41.824219 95.269531 " fill-opacity="1" fill-rule="nonzero"/><path fill="#a0a5c8" d="M 42.027344 93.394531 L 40.609375 90.230469 L 41.605469 89.859375 L 42.585938 93.183594 L 42.027344 93.394531 " fill-opacity="1" fill-rule="nonzero"/><path fill="#a0a5c8" d="M 42.96875 93.234375 L 44.523438 90.136719 L 45.4375 90.679688 L 43.484375 93.539062 L 42.96875 93.234375 " fill-opacity="1" fill-rule="nonzero"/><path fill="#a0a5c8" d="M 41.625 93.824219 L 38.394531 92.597656 L 38.089844 93.621094 L 41.453125 94.398438 L 41.625 93.824219 " fill-opacity="1" fill-rule="nonzero"/><path fill="#a0a5c8" d="M 43.75 93.925781 L 47.148438 93.320312 L 47.265625 94.382812 L 43.816406 94.523438 L 43.75 93.925781 " fill-opacity="1" fill-rule="nonzero"/><path fill="#dedfdd" d="M 42.648438 93.347656 C 42.636719 93.347656 42.625 93.347656 42.613281 93.347656 C 42.332031 93.355469 42.074219 93.472656 41.882812 93.679688 C 41.695312 93.882812 41.59375 94.148438 41.605469 94.429688 C 41.621094 95.007812 42.097656 95.460938 42.679688 95.441406 C 42.960938 95.433594 43.21875 95.316406 43.40625 95.109375 C 43.597656 94.90625 43.699219 94.640625 43.6875 94.359375 C 43.667969 93.789062 43.210938 93.347656 42.648438 93.347656 Z M 42.644531 96.015625 C 41.769531 96.015625 41.0625 95.328125 41.035156 94.449219 C 41.019531 94.015625 41.171875 93.601562 41.46875 93.285156 C 41.761719 92.96875 42.160156 92.789062 42.59375 92.773438 C 43.488281 92.742188 44.230469 93.441406 44.257812 94.339844 C 44.273438 94.773438 44.121094 95.183594 43.824219 95.5 C 43.53125 95.816406 43.132812 96 42.699219 96.015625 C 42.683594 96.015625 42.664062 96.015625 42.644531 96.015625 " fill-opacity="1" fill-rule="nonzero"/><path fill="#bbbdbb" d="M 43.191406 94.375 C 43.199219 94.675781 42.964844 94.929688 42.664062 94.941406 C 42.363281 94.949219 42.113281 94.714844 42.101562 94.410156 C 42.09375 94.109375 42.328125 93.859375 42.628906 93.847656 C 42.929688 93.835938 43.179688 94.074219 43.191406 94.375 " fill-opacity="1" fill-rule="nonzero"/><path fill="#040606" d="M 42.644531 93.96875 L 42.632812 93.96875 C 42.519531 93.972656 42.414062 94.023438 42.339844 94.105469 C 42.261719 94.1875 42.21875 94.296875 42.222656 94.40625 C 42.230469 94.636719 42.417969 94.816406 42.644531 94.816406 L 42.660156 94.816406 C 42.894531 94.808594 43.074219 94.613281 43.066406 94.378906 C 43.058594 94.148438 42.875 93.96875 42.644531 93.96875 Z M 42.644531 95.0625 C 42.285156 95.0625 41.992188 94.78125 41.980469 94.417969 C 41.972656 94.238281 42.039062 94.066406 42.160156 93.9375 C 42.28125 93.804688 42.445312 93.730469 42.625 93.726562 L 42.644531 93.722656 C 43.007812 93.722656 43.300781 94.007812 43.3125 94.371094 C 43.324219 94.742188 43.035156 95.050781 42.667969 95.0625 L 42.644531 95.0625 " fill-opacity="1" fill-rule="nonzero"/><path fill="#651219" d="M 39.285156 75.410156 C 39.285156 75.410156 39.25 75.460938 39.179688 75.554688 C 39.109375 75.652344 39.011719 75.792969 38.882812 75.96875 C 38.625 76.320312 38.253906 76.824219 37.804688 77.421875 C 37.582031 77.71875 37.335938 78.042969 37.078125 78.386719 C 36.820312 78.726562 36.546875 79.085938 36.261719 79.457031 C 35.980469 79.828125 35.691406 80.214844 35.40625 80.609375 C 35.335938 80.707031 35.261719 80.804688 35.199219 80.902344 C 35.183594 80.925781 35.164062 80.953125 35.152344 80.976562 C 35.136719 80.996094 35.121094 81.023438 35.121094 81.027344 C 35.117188 81.03125 35.113281 81.046875 35.109375 81.0625 L 35.09375 81.105469 L 35.058594 81.199219 C 35.011719 81.316406 34.972656 81.417969 34.960938 81.511719 C 34.945312 81.609375 34.949219 81.699219 34.976562 81.800781 C 35.003906 81.902344 35.046875 82.003906 35.101562 82.105469 L 35.140625 82.183594 C 35.152344 82.203125 35.171875 82.234375 35.1875 82.257812 L 35.28125 82.417969 C 35.410156 82.632812 35.535156 82.84375 35.664062 83.054688 C 35.917969 83.472656 36.15625 83.894531 36.394531 84.296875 C 36.632812 84.699219 36.855469 85.09375 37.070312 85.464844 C 37.285156 85.835938 37.484375 86.1875 37.667969 86.515625 C 38.035156 87.167969 38.332031 87.71875 38.539062 88.101562 C 38.644531 88.292969 38.71875 88.445312 38.773438 88.550781 C 38.828125 88.652344 38.859375 88.710938 38.859375 88.710938 C 38.859375 88.710938 38.824219 88.660156 38.757812 88.5625 C 38.691406 88.464844 38.589844 88.324219 38.46875 88.144531 C 38.222656 87.78125 37.875 87.261719 37.464844 86.636719 C 37.261719 86.324219 37.039062 85.984375 36.808594 85.621094 C 36.578125 85.257812 36.332031 84.878906 36.085938 84.480469 C 35.839844 84.082031 35.578125 83.675781 35.324219 83.257812 C 35.195312 83.046875 35.066406 82.835938 34.9375 82.625 C 34.8125 82.417969 34.660156 82.183594 34.585938 81.902344 C 34.546875 81.761719 34.535156 81.601562 34.558594 81.449219 C 34.585938 81.296875 34.640625 81.164062 34.683594 81.050781 L 34.714844 80.972656 L 34.730469 80.925781 C 34.738281 80.914062 34.742188 80.902344 34.753906 80.875 C 34.777344 80.820312 34.792969 80.796875 34.8125 80.765625 C 34.832031 80.734375 34.851562 80.710938 34.867188 80.683594 C 34.941406 80.574219 35.015625 80.472656 35.089844 80.375 C 35.382812 79.976562 35.6875 79.601562 35.980469 79.234375 C 36.273438 78.871094 36.566406 78.523438 36.839844 78.195312 C 37.113281 77.863281 37.378906 77.558594 37.625 77.273438 C 38.113281 76.707031 38.527344 76.242188 38.820312 75.917969 C 38.964844 75.753906 39.082031 75.628906 39.164062 75.542969 C 39.242188 75.457031 39.285156 75.410156 39.285156 75.410156 " fill-opacity="1" fill-rule="nonzero"/><path fill="#93191e" d="M 36.066406 95.796875 C 35.976562 95.398438 35.925781 95.058594 35.914062 94.625 C 35.785156 90.828125 38.71875 87.652344 42.457031 87.523438 C 46.199219 87.398438 49.335938 90.375 49.460938 94.171875 C 49.488281 95.023438 49.363281 95.796875 49.109375 96.558594 L 50.082031 96.511719 C 50.316406 95.714844 50.4375 95.015625 50.40625 94.140625 C 50.261719 89.8125 46.691406 86.421875 42.425781 86.566406 C 38.164062 86.710938 34.824219 90.332031 34.96875 94.65625 C 34.980469 95.042969 35.019531 95.382812 35.085938 95.742188 C 35.09375 95.785156 36.074219 95.820312 36.066406 95.796875 " fill-opacity="1" fill-rule="nonzero"/><path fill="#651219" d="M 83.308594 93.839844 L 82.914062 93.734375 C 82.925781 93.699219 83.808594 90.296875 83.722656 87.691406 C 83.632812 84.933594 82.78125 82.167969 82.773438 82.140625 L 83.164062 82.019531 C 83.171875 82.046875 84.039062 84.867188 84.128906 87.675781 C 84.21875 90.34375 83.347656 93.699219 83.308594 93.839844 " fill-opacity="1" fill-rule="nonzero"/><path fill="#8f191e" d="M 85.753906 93.832031 C 85.695312 93.511719 85.664062 93.28125 85.652344 92.945312 C 85.527344 89.167969 88.472656 86.003906 92.230469 85.878906 C 95.988281 85.75 99.136719 88.710938 99.261719 92.488281 C 99.28125 93.039062 99.234375 93.625 99.128906 94.140625 L 100.011719 94.054688 C 100.109375 93.523438 100.152344 93.023438 100.132812 92.457031 C 99.992188 88.199219 96.441406 84.859375 92.203125 85 C 87.960938 85.144531 84.640625 88.710938 84.78125 92.972656 C 84.792969 93.292969 84.820312 93.558594 84.867188 93.867188 L 85.753906 93.832031 " fill-opacity="1" fill-rule="nonzero"/><path fill="#2c242e" d="M 101.792969 86.882812 C 101.15625 86.691406 98.917969 84.824219 99.007812 84.503906 C 99.042969 84.367188 99.152344 84.164062 99.363281 83.996094 C 98.761719 84.121094 98.492188 84.503906 98.429688 84.71875 C 98.339844 85.011719 100.574219 86.734375 101.207031 86.910156 C 101.460938 86.976562 102.085938 86.972656 102.753906 86.941406 C 102.328125 86.949219 101.96875 86.933594 101.792969 86.882812 " fill-opacity="1" fill-rule="nonzero"/><path fill="#586a80" d="M 43.597656 80 C 43.597656 80 45.152344 76.230469 45.96875 75.742188 C 47.203125 75.007812 59.175781 74.621094 59.175781 74.621094 C 59.175781 74.621094 67.964844 74.324219 73.871094 76.542969 C 78.949219 78.445312 84.757812 82.117188 84.757812 82.117188 C 71.558594 81.289062 65.742188 81.210938 62.28125 81.261719 C 60.511719 81.289062 44.148438 82.023438 43.652344 81.652344 C 43.15625 81.277344 43.597656 80 43.597656 80 " fill-opacity="1" fill-rule="nonzero"/><path fill="#96aad8" d="M 45.160156 79.878906 C 45.160156 79.878906 46.558594 76.484375 47.296875 76.042969 C 48.40625 75.382812 59.195312 75.03125 59.195312 75.03125 C 59.195312 75.03125 67.113281 74.765625 72.433594 76.765625 C 77.007812 78.480469 82.242188 81.789062 82.242188 81.789062 C 70.351562 81.042969 65.113281 80.972656 61.992188 81.019531 C 60.398438 81.042969 45.65625 81.703125 45.207031 81.367188 C 44.761719 81.03125 45.160156 79.878906 45.160156 79.878906 " fill-opacity="1" fill-rule="nonzero"/><path fill="#d12329" d="M 59.179688 74.71875 L 60.457031 81.175781 L 63.613281 81.144531 L 61.519531 74.726562 L 59.179688 74.71875 " fill-opacity="1" fill-rule="nonzero"/><path fill="#c3dcec" d="M 53.351562 75.328125 L 48.71875 81.445312 L 51.617188 81.375 L 56.34375 75.179688 L 53.351562 75.328125 " fill-opacity="1" fill-rule="nonzero"/><path fill="#586a80" d="M 47.867188 75.363281 L 48.558594 81.578125 L 48.242188 81.605469 L 47.671875 75.378906 L 47.867188 75.363281 " fill-opacity="1" fill-rule="nonzero"/><path fill="#a21b21" d="M 48.320312 81.632812 L 47.683594 75.5 L 48.496094 75.414062 L 49.128906 81.546875 L 48.320312 81.632812 " fill-opacity="1" fill-rule="nonzero"/><path fill="#651219" d="M 63.289062 94.113281 L 62.882812 94.078125 C 62.886719 94.050781 63.101562 91.542969 63.132812 89.195312 C 63.203125 83.796875 60.367188 74.851562 60.339844 74.761719 L 60.726562 74.632812 C 60.757812 74.726562 63.609375 83.738281 63.539062 89.203125 C 63.507812 91.5625 63.292969 94.085938 63.289062 94.113281 " fill-opacity="1" fill-rule="nonzero"/><path fill="#586a80" d="M 59.175781 74.621094 L 60.457031 81.175781 L 59.925781 81.195312 L 58.695312 74.683594 L 59.175781 74.621094 " fill-opacity="1" fill-rule="nonzero"/><path fill="#651219" d="M 63.976562 81.046875 C 68.539062 81.046875 75.078125 81.3125 83.949219 81.863281 C 82.253906 80.835938 77.777344 78.226562 73.800781 76.734375 C 69.179688 75 62.773438 74.8125 60.234375 74.8125 C 59.578125 74.8125 59.1875 74.824219 59.183594 74.824219 C 55.867188 74.933594 47.046875 75.335938 46.074219 75.917969 C 45.515625 76.25 44.402344 78.582031 43.789062 80.074219 C 43.664062 80.441406 43.496094 81.25 43.761719 81.476562 C 43.832031 81.496094 44.15625 81.550781 45.636719 81.550781 C 48.78125 81.550781 54.847656 81.324219 58.863281 81.175781 C 60.59375 81.109375 61.847656 81.066406 62.277344 81.058594 C 62.835938 81.050781 63.394531 81.046875 63.976562 81.046875 Z M 85.542969 82.371094 L 84.746094 82.320312 C 75.460938 81.738281 68.667969 81.457031 63.976562 81.457031 C 63.394531 81.457031 62.839844 81.460938 62.285156 81.46875 C 61.859375 81.472656 60.542969 81.523438 58.878906 81.585938 C 54.859375 81.734375 48.789062 81.960938 45.636719 81.960938 C 43.722656 81.960938 43.613281 81.875 43.53125 81.8125 C 42.933594 81.367188 43.355469 80.078125 43.40625 79.933594 L 43.410156 79.921875 C 43.570312 79.53125 45.011719 76.074219 45.863281 75.566406 C 47.105469 74.824219 57.941406 74.453125 59.171875 74.414062 C 59.175781 74.414062 59.570312 74.402344 60.234375 74.402344 C 62.796875 74.402344 69.257812 74.589844 73.941406 76.347656 C 78.980469 78.238281 84.808594 81.90625 84.867188 81.945312 L 85.542969 82.371094 " fill-opacity="1" fill-rule="nonzero"/><path fill="#2c242e" d="M 79.714844 78.789062 C 79.714844 78.789062 78.34375 79.707031 78.414062 80.289062 C 78.480469 80.871094 79.113281 81.042969 79.308594 81.035156 C 79.5 81.03125 81.816406 80.953125 81.816406 80.953125 C 81.816406 80.953125 82.683594 80.804688 82.476562 80.359375 C 82.265625 79.917969 81.113281 79.324219 80.414062 79.054688 C 79.714844 78.789062 79.714844 78.789062 79.714844 78.789062 " fill-opacity="1" fill-rule="nonzero"/><path fill="#2c242e" d="M 80.21875 80.832031 L 80.507812 81.863281 L 84.757812 82.117188 L 82.117188 80.546875 L 80.21875 80.832031 " fill-opacity="1" fill-rule="nonzero"/><path fill="#c3dcec" d="M 57.597656 75.09375 L 53.019531 81.332031 L 54.613281 81.277344 L 58.753906 75 L 57.597656 75.09375 " fill-opacity="1" fill-rule="nonzero"/><path fill="#c3dcec" d="M 68.976562 75.832031 L 65.230469 81 L 68.035156 81.027344 L 71.425781 76.421875 L 68.976562 75.832031 " fill-opacity="1" fill-rule="nonzero"/><path fill="#2c242e" d="M 34.894531 82.273438 L 34.402344 82.289062 L 35.824219 84.730469 C 35.824219 84.730469 32.867188 84.941406 31.636719 84.828125 C 31.695312 84.984375 31.792969 85.105469 31.945312 85.175781 C 32.550781 85.449219 36.585938 85.164062 36.585938 85.164062 L 34.894531 82.273438 " fill-opacity="1" fill-rule="nonzero"/></svg>